<svg role="img" aria-label="Logo" aria-labelledby="logoTitle" aria-describedby="logoDesc" width="520" height="54"
    focusable="false" xmlns="http://www.w3.org/2000/svg" fill="none" viewBox="0 0 520 54" itemscope=''
    itemtype="https://schema.org/Organization">
    <title id="logoTitle">Legacy Concierge</title>

    <defs>
        <filter id="subtleShadow" x="-20%" y="-20%" width="140%" height="140%">
            <feDropShadow dx="1" dy="2" stdDeviation="1.5" flood-opacity="0.15" flood-color="darkslategray" />
        </filter>

        <style type="text/css">
            :root {
                /* aspect-ratio: 27/ 260; */
                vertical-align: baseline;
                display: flex;
                place-self: center;
                place-content: center;
                place-items: center;
                margin-block: auto;

                min-block-size: max-content;
                block-size: auto;
                inline-size: 100%;
                min-inline-size: 48rem;
                color-scheme: light dark;
                color: color(srgb darkslategray);

                @supported (inline-size: 100dvw) {
                    inline-size: 100dvw;
                }

                @supported (color: oklch(0.25 0.02 192)) {
                    color: oklch(0.25 0.02 192);
                }

                @supported (color: light-dark(oklch(0.25 0.02 192), oklch(0.98 0.005 240))) {
                    color: light-dark(
                        oklch(0.25 0.02 192),
                        oklch(0.98 0.005 240),
                    );
                }

                @media (prefers-contrast: more) {
                    color: color(srgb black);
                    @supported (color: oklch(0 0 0)) {
                        color: oklch(0 0 0);
                    }
                }

                @media not (prefers-contrast: more) {
                    color: color(srgb dimgray);
                    @supported (color: oklch(0.18 0.24 0.36 / 0.96)) {
                        color: oklch(0.18 0.24 0.36 / 0.925);
                    }
                }

                @media (prefers-color-scheme: dark) and (prefers-contrast: more) {
                    color: color(srgb ghostwhite);
                    @supported (color: oklch(0.98 0.005 240)) {
                        color: oklch(0.98 0.005 240);
                    }
                }

                @media (prefers-color-scheme: dark) and (not (prefers-contrast: more)) {
                    color: color(srgb gainsboro);
                    @supported (color: oklch(0.8 0.2 0.12 / 0.92)) {
                        color: oklch(0.8 0.2 0.12 / 0.92);
                    }
                }

            }
        </style>

        <desc id="logoDesc">
            Legacy Concierge company logo featuring elegant typography
        </desc>

        <meta itemprop="name" content="Legacy Concierge" />
        <meta itemprop="url" content="https://legacyconcierge.com/" />
        <meta itemprop="logo" content="https://legacyconcierge.com/logo.svg" />
        <meta itemprop="description" content="Legacy Concierge provides premium concierge services" />
        <meta itemprop="foundingDate" content="2020" />

        <meta itemprop="contactPoint" itemscope='' itemtype="https://schema.org/ContactPoint">
        <meta itemprop="contactType" content="customer service" />
        <meta itemprop="url" content="https://legacyconcierge.com/contact" />
        <meta itemprop="telephone" content="tel:+13109744517" />
        <meta itemprop="email" content="mailto:info@legacyconcierge.com" />
        </meta>
    </defs>

    <g filter="url(#subtle-shadow)">
        <g fill="currentColor" itemprop="image">
            <path
                d="M511.57 8.76c-.74 2-1.4 4.04-1.96 6.1a18.84 18.84 0 0 0-.72 3.2h-1.19c.31-2 .47-3.37.47-4.13 0-1.48-.38-2.51-1.14-3.1-.76-.59-2.11-.88-4.08-.88h-3.76a9.8 9.8 0 0 0-2.76.29c-.62.2-1.14.6-1.47 1.16-.38.58-.74 1.53-1.08 2.84l-3.25 12.18h3.4c1.2 0 2.2-.28 2.99-.85a6.47 6.47 0 0 0 1.86-1.98c.52-.93.97-1.9 1.34-2.9.1-.34.24-.7.41-1.08h1.19a117.2 117.2 0 0 0-1.8 6.15l-.32 1.18c-.61 2.43-1.16 4.88-1.65 7.34h-1.18l.15-1.04.16-1.13c.06-.52.1-.97.1-1.35a3.48 3.48 0 0 0-.8-2.43c-.54-.58-1.45-.87-2.76-.87h-3.4L487 39.86a9.67 9.67 0 0 0-.47 2.52c0 .73.26 1.2.78 1.43.52.22 1.42.32 2.74.32h3.76c2.14 0 3.84-.27 5.1-.84a7.44 7.44 0 0 0 3.18-2.74c.85-1.25 1.71-3.1 2.6-5.56h1.2a35.2 35.2 0 0 0-1.14 3.72 53.62 53.62 0 0 0-1.4 6.61c-2.33-.1-6.27-.15-11.8-.15-6.61 0-11.58.05-14.92.15l.26-1.03c1.24-.06 2.15-.2 2.76-.4a2.9 2.9 0 0 0 1.47-1.2c.37-.58.74-1.53 1.08-2.84l6.87-25.61c.3-1.1.46-1.95.46-2.53 0-.73-.25-1.2-.75-1.45-.5-.24-1.4-.4-2.71-.46l.26-1.04a523.56 523.56 0 0 0 25.23 0Zm-50.09 35.88c1.01-.31 1.9-.69 2.66-1.13a4.77 4.77 0 0 0 2.37-3.26l1.19-4.55c.3-1.13.46-2.02.46-2.68 0-.86-.31-1.44-.93-1.73a9.78 9.78 0 0 0-3.4-.54l.26-1.03a137.81 137.81 0 0 0 12.64 0l-.26 1.03c-.63.02-1.25.16-1.83.41-.46.27-.82.68-1.04 1.17-.29.56-.6 1.52-.95 2.86l-2.74 10.22h-1.03c.1-.41.16-.86.16-1.34 0-1.07-.26-1.6-.78-1.6-.2 0-.43.05-.7.16-.43.2-.85.45-1.25.72a21.12 21.12 0 0 1-4.3 2.06 13.8 13.8 0 0 1-4.48.73c-4.2 0-7.41-1.03-9.65-3.07-2.23-2.05-3.35-4.97-3.35-8.76 0-4 .97-8.02 2.91-12.08a27.58 27.58 0 0 1 8.1-10.1 18.5 18.5 0 0 1 11.59-4c2.06 0 3.71.28 4.93.85 1.3.63 2.5 1.48 3.53 2.5.31.32.6.47.88.47.34 0 .68-.24 1-.72.33-.48.68-1.27 1.06-2.38h1.14a82.6 82.6 0 0 0-3.3 11.88h-1.14c.17-1.48.26-2.77.26-3.87a8.4 8.4 0 0 0-.72-3.77 7.35 7.35 0 0 0-3.2-2.97 10.47 10.47 0 0 0-4.75-1.06c-3.55 0-6.65 1.5-9.32 4.5a30.33 30.33 0 0 0-6.08 10.83 37.52 37.52 0 0 0-2.1 11.62c0 3.1.74 5.4 2.2 6.88 1.46 1.48 3.7 2.21 6.73 2.21 1.14 0 2.21-.15 3.23-.46ZM419.6 26.99h1.55c4.65 0 8-1.02 10.1-3.05 2.07-2.03 3.1-4.73 3.1-8.1 0-2.04-.5-3.54-1.54-4.53-1.03-.98-2.7-1.47-5-1.47-.83-.04-1.65.1-2.43.39-.6.27-1.1.73-1.42 1.31-.36.62-.69 1.54-1 2.74l-3.35 12.7Zm18.53 12.13h1.18l-.2.67c-.62 2.17-1.4 3.77-2.36 4.78a4.91 4.91 0 0 1-3.78 1.52c-1.61 0-2.82-.48-3.61-1.44a4.74 4.74 0 0 1-1.04-3.52l.42-5.78c.03-.41.05-.97.05-1.65a6.1 6.1 0 0 0-.78-3.36c-.51-.79-1.45-1.36-2.8-1.73a25.74 25.74 0 0 0-5.91-.59l-3.15 11.87a9.25 9.25 0 0 0-.46 2.54c0 .68.24 1.17.74 1.44.5.28 1.42.44 2.76.47l-.2 1.03c-1.59-.1-3.72-.15-6.4-.15-3.03 0-5.26.05-6.71.15l.2-1.03c1.25-.07 2.18-.2 2.8-.42.61-.2 1.1-.6 1.46-1.18.36-.59.71-1.54 1.06-2.85l6.81-25.6c.31-1.18.47-1.99.47-2.44 0-.72-.26-1.22-.78-1.52a6.4 6.4 0 0 0-2.73-.49l.25-1.03c1.38.1 3.5.16 6.35.16 1.66 0 2.9-.02 3.72-.06l3.82-.05c3.37 0 5.92.64 7.66 1.94a6.29 6.29 0 0 1 2.6 5.34c0 2.83-1.22 5.27-3.66 7.33-2.44 2.07-5.71 3.45-9.8 4.14.44.03 1.05.12 1.8.26 2.03.37 3.49.98 4.39 1.8.89.83 1.34 2.16 1.34 3.98 0 .44-.02.8-.06 1.03l-.4 5.27c-.05.36-.06.72-.06 1.08 0 2.1.56 3.15 1.65 3.15.59 0 1.12-.35 1.6-1.05a14.69 14.69 0 0 0 1.5-3.29l.26-.72ZM409.2 8.76a75.9 75.9 0 0 0-1.95 6.1 18.84 18.84 0 0 0-.72 3.2h-1.2c.32-2 .47-3.37.47-4.13 0-1.48-.37-2.51-1.13-3.1-.76-.59-2.12-.88-4.08-.88h-3.76a9.8 9.8 0 0 0-2.76.29c-.62.2-1.14.6-1.47 1.16a9.8 9.8 0 0 0-1.09 2.84l-3.25 12.18h3.4a5 5 0 0 0 3-.85 6.46 6.46 0 0 0 1.86-1.98c.52-.93.97-1.9 1.34-2.9.1-.34.24-.7.4-1.08h1.2a117.3 117.3 0 0 0-1.81 6.15l-.31 1.18c-.61 2.43-1.16 4.88-1.65 7.34h-1.19l.16-1.04.15-1.13c.07-.52.1-.97.1-1.35a3.47 3.47 0 0 0-.8-2.43c-.53-.58-1.44-.87-2.75-.87h-3.4l-3.31 12.4a9.67 9.67 0 0 0-.47 2.52c0 .73.26 1.2.78 1.43.52.22 1.42.32 2.73.32h3.77c2.13 0 3.84-.27 5.1-.84a7.44 7.44 0 0 0 3.18-2.74c.84-1.25 1.71-3.1 2.6-5.56h1.2a35.68 35.68 0 0 0-1.14 3.72 53.62 53.62 0 0 0-1.4 6.61c-2.33-.1-6.27-.15-11.8-.15-6.62 0-11.59.05-14.92.15l.26-1.03c1.23-.06 2.15-.2 2.76-.4.6-.22 1.09-.61 1.46-1.2.38-.58.75-1.53 1.09-2.84l6.86-25.61c.31-1.1.47-1.95.47-2.53 0-.73-.25-1.2-.75-1.45-.5-.24-1.4-.4-2.71-.46l.26-1.04a523.6 523.6 0 0 0 25.23 0Zm-42.72 33.7c0 .73.25 1.21.75 1.45.5.25 1.42.4 2.76.46l-.2 1.04c-1.59-.1-3.77-.16-6.56-.16-2.89 0-5.08.05-6.55.16l.25-1.04c1.21-.06 2.11-.2 2.72-.4a2.7 2.7 0 0 0 1.44-1.22c.36-.6.71-1.54 1.05-2.81l6.82-25.62c.27-1.17.41-2 .41-2.48 0-.76-.24-1.25-.75-1.5-.5-.24-1.4-.4-2.7-.46l.25-1.03c1.41.1 3.6.15 6.55.15 2.76 0 4.96-.05 6.61-.15l-.26 1.03c-.95.02-1.9.16-2.81.41a2.7 2.7 0 0 0-1.44 1.19c-.48.9-.84 1.85-1.06 2.84l-6.81 25.62c-.23.82-.39 1.67-.47 2.52Zm-9.26-21.79h-1.13c.2-1.35.31-2.53.31-3.57 0-1.65-.28-3-.83-4.07a6.75 6.75 0 0 0-2.76-2.98 7.86 7.86 0 0 0-4-1.05c-2.85 0-5.61 1.34-8.28 4.03a30.32 30.32 0 0 0-6.48 10.14 31.61 31.61 0 0 0-2.47 11.86c0 3.3.65 5.81 1.96 7.53a6.42 6.42 0 0 0 5.42 2.59c1.5 0 3.11-.36 4.8-1.06a13.8 13.8 0 0 0 6.7-6.09 52.74 52.74 0 0 0 2.32-5.04h1.14a171.55 171.55 0 0 0-3.04 12.39h-1.14c.1-.72.16-1.3.16-1.75 0-.9-.21-1.35-.62-1.35-.25 0-.6.16-1.08.47a27.4 27.4 0 0 1-4.7 2.56c-1.34.53-3.03.8-5.06.8-3.82 0-6.78-1.04-8.88-3.1-2.1-2.07-3.14-5.08-3.14-9.04 0-3.96.99-7.96 2.97-11.98a27.48 27.48 0 0 1 8.14-9.97 18.43 18.43 0 0 1 11.38-3.92c2 0 3.51.28 4.57.85 1.05.57 2.08 1.4 3.12 2.5.24.31.5.47.77.47.31 0 .63-.25.95-.75.33-.5.7-1.28 1.12-2.35h1.08a85.23 85.23 0 0 0-3.3 11.88Zm-31.09-13.2a4.16 4.16 0 0 1 3.36 1.56v-.01c0-.8-.25-1.43-.72-1.91-.49-.48-1.28-.73-2.38-.73-2.2 0-4.06 1.1-5.57 3.3-1.48 2.14-2.93 5.63-4.33 10.47a282.98 282.98 0 0 0-4.34 17.16L302.4 8.76c-1.2.1-2.6.16-4.18.16a49.7 49.7 0 0 1-4.6-.16l-.25 1.04c1.55.07 2.6.23 3.15.5.55.24.82.79.82 1.62 0 .55-.1 1.32-.3 2.32a336.26 336.26 0 0 1-4.5 20.24c-1.37 5.24-2.7 8.87-3.97 10.9-1.1 1.75-2.53 2.65-4.28 2.68h-.15c-1.83.05-2.27-.35-3.33-1.25.13 1.55 1.14 2.34 3.07 2.34 1.24 0 2.27-.3 3.12-.88.92-.66 1.73-1.46 2.4-2.38 1.37-1.82 2.81-5.7 4.3-11.66a428.38 428.38 0 0 0 4.78-21.9l11.76 33.25h1.14c2.1-9.91 3.97-17.74 5.62-23.47s3.23-9.73 4.75-12c1.13-1.73 2.54-2.61 4.23-2.64h.15Zm-61.01 5.23a27.22 27.22 0 0 0-5.86 9.63 33.92 33.92 0 0 0-2.21 12c0 3.35.65 5.98 1.95 7.9 1.32 1.93 3.04 2.9 5.17 2.9 2.58 0 5.07-1.25 7.5-3.72a27.2 27.2 0 0 0 5.86-9.63 33.96 33.96 0 0 0 2.22-12c0-3.35-.65-5.98-1.96-7.9a5.96 5.96 0 0 0-5.16-2.9c-2.58 0-5.08 1.24-7.5 3.72Zm-10.8 9.14a26.34 26.34 0 0 1 7.66-9.9 17.45 17.45 0 0 1 11.12-3.9c3.85 0 6.84 1.1 8.97 3.26 2.13 2.17 3.2 5.24 3.2 9.2 0 3.88-.92 7.82-2.76 11.8a26.5 26.5 0 0 1-7.71 9.86 17.48 17.48 0 0 1-11.1 3.9c-3.82 0-6.79-1.1-8.92-3.26-2.13-2.17-3.2-5.21-3.2-9.14 0-3.89.91-7.83 2.73-11.82Zm-6.71-1.17h-1.13c.2-1.35.31-2.53.31-3.57 0-1.65-.28-3-.83-4.07a6.75 6.75 0 0 0-2.76-2.98 7.86 7.86 0 0 0-4-1.05c-2.85 0-5.61 1.34-8.28 4.03a30.32 30.32 0 0 0-6.48 10.14 31.61 31.61 0 0 0-2.47 11.86c0 3.3.65 5.81 1.96 7.53a6.42 6.42 0 0 0 5.42 2.59c1.5 0 3.11-.36 4.8-1.06a13.8 13.8 0 0 0 6.7-6.09 52.74 52.74 0 0 0 2.32-5.04h1.14a171.55 171.55 0 0 0-3.04 12.39h-1.14c.1-.72.16-1.3.16-1.75 0-.9-.21-1.35-.62-1.35-.25 0-.6.16-1.08.47a27.4 27.4 0 0 1-4.7 2.56c-1.34.53-3.03.8-5.06.8-3.82 0-6.78-1.04-8.88-3.1-2.1-2.07-3.14-5.08-3.14-9.04 0-3.96.99-7.96 2.97-11.98a27.48 27.48 0 0 1 8.14-9.97 18.43 18.43 0 0 1 11.38-3.92c2 0 3.51.28 4.57.85 1.05.57 2.08 1.4 3.12 2.5.24.31.5.47.77.47.31 0 .63-.25.96-.75.32-.5.7-1.28 1.11-2.35h1.08a85.23 85.23 0 0 0-3.3 11.88ZM202.72 8.76V9.8a4.2 4.2 0 0 0-2.01 1.31c-.85 1-1.56 2.1-2.12 3.29l-8.1 16.05v9.4c0 1.3.1 2.26.3 2.84a1.86 1.86 0 0 0 1.17 1.2c.57.2 1.47.33 2.7.4v1.03c-1.58-.1-3.76-.15-6.54-.15-2.96 0-5.17.05-6.6.15V44.3c1.23-.06 2.13-.2 2.7-.4a1.85 1.85 0 0 0 1.16-1.2c.2-.58.31-1.53.31-2.84v-7.74l-10.48-19.37a8.5 8.5 0 0 0-1.62-2.3c-.46-.4-.92-.6-1.37-.6V8.77a111.1 111.1 0 0 0 11.77 0v1.09c-2.41 0-3.61.66-3.61 1.96a4 4 0 0 0 .51 1.8l8.57 16.48 6.6-13.12c.93-1.82 1.4-3.3 1.4-4.44 0-.96-.38-1.65-1.14-2.06a7.65 7.65 0 0 0-3.4-.67V8.76c1.95.1 3.93.16 5.93.16 1.55 0 2.83-.05 3.87-.16Zm-41.54.16a17.9 17.9 0 0 1 4.23 2.48c.38.3.7.46.99.46.68 0 1.13-1.03 1.33-3.1h1.2c-.15 2.24-.21 6.2-.21 11.88h-1.2a40.06 40.06 0 0 0-1.03-4.83 8.62 8.62 0 0 0-1.54-2.82A9.55 9.55 0 0 0 161 9.98a13.26 13.26 0 0 0-5.19-1.01c-2.22 0-4.18.74-5.85 2.22-1.67 1.48-2.97 3.59-3.9 6.32a30.03 30.03 0 0 0-1.4 9.64c0 3.75.5 6.97 1.5 9.65 1 2.69 2.4 4.73 4.16 6.13a9.47 9.47 0 0 0 6.01 2.08c1.72 0 3.4-.32 5-.98a8.42 8.42 0 0 0 3.83-2.94 9.91 9.91 0 0 0 1.49-3.1c.3-1.1.6-2.79.88-5.06h1.19c-.04 4.13.03 8.26.2 12.4h-1.19c-.04-.8-.18-1.6-.43-2.36-.2-.46-.46-.7-.8-.7-.28 0-.64.15-1.09.42-1.37 1-2.86 1.85-4.43 2.5-1.63.61-3.37.9-5.11.86a16.3 16.3 0 0 1-8.6-2.23 14.8 14.8 0 0 1-5.72-6.42c-1.36-2.8-2.04-6.16-2.04-10.05 0-3.78.7-7.14 2.1-10.07a16.22 16.22 0 0 1 5.82-6.81 15.25 15.25 0 0 1 8.49-2.43c2.06 0 3.82.3 5.26.88Zm-27.2 32.15-12.6-32.49h-.82l-12.12 31.3c-1 2.58-2.36 4.08-4.08 4.49v1.03c1.03-.1 2.32-.15 3.87-.15 2 0 3.97.05 5.93.15v-1.03a6.57 6.57 0 0 1-3.38-.78c-.74-.47-1.11-1.25-1.11-2.32 0-.96.34-2.37 1.04-4.23l8.4-21.95 5.78 15.44.42 1.04 3.14 8.46c.42 1.04.62 1.85.62 2.43 0 .69-.28 1.17-.85 1.43-.56.24-1.5.41-2.8.48v1.03c1.44-.1 3.64-.15 6.6-.15 2.3 0 4.14.05 5.52.15v-1.03c-1.55-.06-2.74-1.17-3.56-3.3Zm-33.04-10.18a.56.56 0 0 1-.29-.2h-.07a18.2 18.2 0 0 0-2.31-.34c-.8-.07-1.63-.07-2.43-.2-.19-.03-.3-.17-.39-.34-1.06 0-2.05-.02-2.93-.05l-.05.05c-.28.19-.62.2-.95.2-.25 0-.5 0-.76.04l-.52.09v.56c1.54.07 2.66.23 3.35.46a2.33 2.33 0 0 1 1.45 1.35c.27.66.41 1.7.41 3.15v4.95c0 .7-.1 1.24-.28 1.63-.3.5-.72.93-1.22 1.22a9.07 9.07 0 0 1-5.37 1.6c-4.23 0-7.33-1.44-9.3-4.32-1.99-2.87-2.98-7.4-2.98-13.6 0-3.65.47-6.84 1.4-9.58.93-2.74 2.25-4.84 3.97-6.32A8.86 8.86 0 0 1 87.65 9c1.76 0 3.43.37 5.04 1.09 1.51.65 2.85 1.66 3.9 2.94a8.81 8.81 0 0 1 1.59 3.12 42 42 0 0 1 .98 4.53h1.19c0-5.69.07-9.65.2-11.88h-1.18c-.2 2.1-.64 3.14-1.29 3.14-.25 0-.59-.16-1.03-.51a24.11 24.11 0 0 0-4.29-2.5c-1.3-.57-2.97-.86-5-.86-3.03-.05-6 .79-8.56 2.4a16.23 16.23 0 0 0-5.92 6.87 23.74 23.74 0 0 0-2.14 10.36c0 3.82.68 7.1 2.02 9.86a14.38 14.38 0 0 0 5.8 6.33c2.53 1.47 5.57 2.2 9.1 2.2 1.59 0 3.02-.24 4.32-.7a13.73 13.73 0 0 0 3.74-2.09 8.7 8.7 0 0 1 1.08-.72c.2-.11.42-.16.62-.16.42 0 .74.32.98.95.25.64.38 1.3.41 2h1.04V35.14c0-1.3.06-2.26.18-2.84.12-.59.36-.98.72-1.19.08-.05.18-.09.28-.13l-.49-.1Z"
                itemprop="image" />
            <path
                d="M82.01 33.63c4-2.7 8.86-4.41 13.75-3.86 11.97 1.47 23.06 7.35 35.1 2.74 1.65-.64 3.43-1.21 4.39-2.77.3-.49.43-1.11.18-1.68 1.06 2.49-2.5 4.24-4.33 5.02a30.49 30.49 0 0 1-12.5 2.2c-7.83-.34-15.3-3.38-22.94-4.62-4.75-.72-9.49.68-13.65 2.97ZM65.8 45.41c-2.34-.1-6.28-.15-11.81-.15-6.61 0-11.6.05-14.97.15v-1.03a9.66 9.66 0 0 0 2.7-.41 1.86 1.86 0 0 0 1.17-1.19c.2-.58.3-1.53.3-2.84V14.32c0-1.3-.1-2.25-.3-2.83a1.86 1.86 0 0 0-1.16-1.2 10.3 10.3 0 0 0-2.71-.4V8.85a540.37 540.37 0 0 0 25.74 0 58.26 58.26 0 0 0-.35 6.1c0 1.34.05 2.41.15 3.2h-1.19a23.8 23.8 0 0 0-.93-4.98 4.18 4.18 0 0 0-1.9-2.38c-.9-.5-2.26-.75-4.08-.75h-4.28c-1.24 0-2.15.1-2.71.28a1.78 1.78 0 0 0-1.16 1.17c-.2.58-.31 1.53-.31 2.83v12.2h3.4c1.2 0 2.13-.3 2.79-.86a4.22 4.22 0 0 0 1.32-2.02c.22-.76.4-1.74.54-2.9l.15-1.04h1.2a67.5 67.5 0 0 0-.16 4.85v2.48c0 1.76.1 4.2.3 7.33h-1.18c-.04-.24-.14-1.07-.31-2.5a5.05 5.05 0 0 0-1.43-3.23 4.51 4.51 0 0 0-3.22-1.08H48v12.4c0 1.3.1 2.25.3 2.83.21.58.6.97 1.17 1.16.56.2 1.47.28 2.7.28h3.77c2.14 0 3.76-.28 4.88-.85 1.13-.57 2-1.55 2.45-2.73.52-1.26.9-3.1 1.14-5.56h1.18a34.73 34.73 0 0 0-.15 3.72c0 1.97.11 4.17.36 6.61ZM21.73 9.8c-1.24.07-2.15.2-2.72.41a1.86 1.86 0 0 0-1.15 1.19c-.2.59-.31 1.53-.31 2.84v25.61c0 1.31.1 2.26.3 2.84.21.59.6.98 1.17 1.17a9.4 9.4 0 0 0 2.7.28h3.77c2.14 0 3.76-.3 4.88-.9a5.33 5.33 0 0 0 2.45-2.92c.52-1.35.9-3.29 1.14-5.84h1.18c-.1 1.07-.15 2.48-.15 4.24 0 1.96.12 4.16.36 6.6-2.34-.1-6.28-.15-11.82-.15-4.98-.02-9.97.03-14.96.15V44.3c1.24-.07 2.14-.22 2.71-.42a1.86 1.86 0 0 0 1.16-1.19c.2-.58.3-1.53.3-2.84v-25.6c0-1.32-.1-2.26-.3-2.85a1.86 1.86 0 0 0-1.16-1.19 10 10 0 0 0-2.71-.41V8.76c1.44.1 3.65.16 6.6.16 2.76 0 4.94-.05 6.56-.16V9.8Z"
                itemprop="image" />
        </g>
        <g stroke="currentColor" stroke-width=".125" itemprop="image">
            <path
                d="M511.57 8.76c-.74 2-1.4 4.04-1.96 6.1a18.84 18.84 0 0 0-.72 3.2h-1.19c.31-2 .47-3.37.47-4.13 0-1.48-.38-2.51-1.14-3.1-.76-.59-2.11-.88-4.08-.88h-3.76a9.8 9.8 0 0 0-2.76.29c-.62.2-1.14.6-1.47 1.16-.38.58-.74 1.53-1.08 2.84l-3.25 12.18h3.4c1.2 0 2.2-.28 2.99-.85a6.47 6.47 0 0 0 1.86-1.98c.52-.93.97-1.9 1.34-2.9.1-.34.24-.7.41-1.08h1.19a117.2 117.2 0 0 0-1.8 6.15l-.32 1.18c-.61 2.43-1.16 4.88-1.65 7.34h-1.18l.15-1.04.16-1.13c.06-.52.1-.97.1-1.35a3.48 3.48 0 0 0-.8-2.43c-.54-.58-1.45-.87-2.76-.87h-3.4L487 39.86a9.67 9.67 0 0 0-.47 2.52c0 .73.26 1.2.78 1.43.52.22 1.42.32 2.74.32h3.76c2.14 0 3.84-.27 5.1-.84a7.44 7.44 0 0 0 3.18-2.74c.85-1.25 1.71-3.1 2.6-5.56h1.2a35.2 35.2 0 0 0-1.14 3.72 53.62 53.62 0 0 0-1.4 6.61c-2.33-.1-6.27-.15-11.8-.15-6.61 0-11.58.05-14.92.15l.26-1.03c1.24-.06 2.15-.2 2.76-.4a2.9 2.9 0 0 0 1.47-1.2c.37-.58.74-1.53 1.08-2.84l6.87-25.61c.3-1.1.46-1.95.46-2.53 0-.73-.25-1.2-.75-1.45-.5-.24-1.4-.4-2.71-.46l.26-1.04a523.56 523.56 0 0 0 25.23 0Zm-50.09 35.88c1.01-.31 1.9-.69 2.66-1.13a4.77 4.77 0 0 0 2.37-3.26l1.19-4.55c.3-1.13.46-2.02.46-2.68 0-.86-.31-1.44-.93-1.73a9.78 9.78 0 0 0-3.4-.54l.26-1.03a137.81 137.81 0 0 0 12.64 0l-.26 1.03c-.63.02-1.25.16-1.83.41-.46.27-.82.68-1.04 1.17-.29.56-.6 1.52-.95 2.86l-2.74 10.22h-1.03c.1-.41.16-.86.16-1.34 0-1.07-.26-1.6-.78-1.6-.2 0-.43.05-.7.16-.43.2-.85.45-1.25.72a21.12 21.12 0 0 1-4.3 2.06 13.8 13.8 0 0 1-4.48.73c-4.2 0-7.41-1.03-9.65-3.07-2.23-2.05-3.35-4.97-3.35-8.76 0-4 .97-8.02 2.91-12.08a27.58 27.58 0 0 1 8.1-10.1 18.5 18.5 0 0 1 11.59-4c2.06 0 3.71.28 4.93.85 1.3.63 2.5 1.48 3.53 2.5.31.32.6.47.88.47.34 0 .68-.24 1-.72.33-.48.68-1.27 1.06-2.38h1.14a82.6 82.6 0 0 0-3.3 11.88h-1.14c.17-1.48.26-2.77.26-3.87a8.4 8.4 0 0 0-.72-3.77 7.35 7.35 0 0 0-3.2-2.97 10.47 10.47 0 0 0-4.75-1.06c-3.55 0-6.65 1.5-9.32 4.5a30.33 30.33 0 0 0-6.08 10.83 37.52 37.52 0 0 0-2.1 11.62c0 3.1.74 5.4 2.2 6.88 1.46 1.48 3.7 2.21 6.73 2.21 1.14 0 2.21-.15 3.23-.46ZM419.6 26.99h1.55c4.65 0 8-1.02 10.1-3.05 2.07-2.03 3.1-4.73 3.1-8.1 0-2.04-.5-3.54-1.54-4.53-1.03-.98-2.7-1.47-5-1.47-.83-.04-1.65.1-2.43.39-.6.27-1.1.73-1.42 1.31-.36.62-.69 1.54-1 2.74l-3.35 12.7Zm18.53 12.13h1.18l-.2.67c-.62 2.17-1.4 3.77-2.36 4.78a4.91 4.91 0 0 1-3.78 1.52c-1.61 0-2.82-.48-3.61-1.44a4.74 4.74 0 0 1-1.04-3.52l.42-5.78c.03-.41.05-.97.05-1.65a6.1 6.1 0 0 0-.78-3.36c-.51-.79-1.45-1.36-2.8-1.73a25.74 25.74 0 0 0-5.91-.59l-3.15 11.87a9.25 9.25 0 0 0-.46 2.54c0 .68.24 1.17.74 1.44.5.28 1.42.44 2.76.47l-.2 1.03c-1.59-.1-3.72-.15-6.4-.15-3.03 0-5.26.05-6.71.15l.2-1.03c1.25-.07 2.18-.2 2.8-.42.61-.2 1.1-.6 1.46-1.18.36-.59.71-1.54 1.06-2.85l6.81-25.6c.31-1.18.47-1.99.47-2.44 0-.72-.26-1.22-.78-1.52a6.4 6.4 0 0 0-2.73-.49l.25-1.03c1.38.1 3.5.16 6.35.16 1.66 0 2.9-.02 3.72-.06l3.82-.05c3.37 0 5.92.64 7.66 1.94a6.29 6.29 0 0 1 2.6 5.34c0 2.83-1.22 5.27-3.66 7.33-2.44 2.07-5.71 3.45-9.8 4.14.44.03 1.05.12 1.8.26 2.03.37 3.49.98 4.39 1.8.89.83 1.34 2.16 1.34 3.98 0 .44-.02.8-.06 1.03l-.4 5.27c-.05.36-.06.72-.06 1.08 0 2.1.56 3.15 1.65 3.15.59 0 1.12-.35 1.6-1.05a14.69 14.69 0 0 0 1.5-3.29l.26-.72ZM409.2 8.76a75.9 75.9 0 0 0-1.95 6.1 18.84 18.84 0 0 0-.72 3.2h-1.2c.32-2 .47-3.37.47-4.13 0-1.48-.37-2.51-1.13-3.1-.76-.59-2.12-.88-4.08-.88h-3.76a9.8 9.8 0 0 0-2.76.29c-.62.2-1.14.6-1.47 1.16a9.8 9.8 0 0 0-1.09 2.84l-3.25 12.18h3.4a5 5 0 0 0 3-.85 6.46 6.46 0 0 0 1.86-1.98c.52-.93.97-1.9 1.34-2.9.1-.34.24-.7.4-1.08h1.2a117.3 117.3 0 0 0-1.81 6.15l-.31 1.18c-.61 2.43-1.16 4.88-1.65 7.34h-1.19l.16-1.04.15-1.13c.07-.52.1-.97.1-1.35a3.47 3.47 0 0 0-.8-2.43c-.53-.58-1.44-.87-2.75-.87h-3.4l-3.31 12.4a9.67 9.67 0 0 0-.47 2.52c0 .73.26 1.2.78 1.43.52.22 1.42.32 2.73.32h3.77c2.13 0 3.84-.27 5.1-.84a7.44 7.44 0 0 0 3.18-2.74c.84-1.25 1.71-3.1 2.6-5.56h1.2a35.68 35.68 0 0 0-1.14 3.72 53.62 53.62 0 0 0-1.4 6.61c-2.33-.1-6.27-.15-11.8-.15-6.62 0-11.59.05-14.92.15l.26-1.03c1.23-.06 2.15-.2 2.76-.4.6-.22 1.09-.61 1.46-1.2.38-.58.75-1.53 1.09-2.84l6.86-25.61c.31-1.1.47-1.95.47-2.53 0-.73-.25-1.2-.75-1.45-.5-.24-1.4-.4-2.71-.46l.26-1.04a523.6 523.6 0 0 0 25.23 0Zm-42.72 33.7c0 .73.25 1.21.75 1.45.5.25 1.42.4 2.76.46l-.2 1.04c-1.59-.1-3.77-.16-6.56-.16-2.89 0-5.08.05-6.55.16l.25-1.04c1.21-.06 2.11-.2 2.72-.4a2.7 2.7 0 0 0 1.44-1.22c.36-.6.71-1.54 1.05-2.81l6.82-25.62c.27-1.17.41-2 .41-2.48 0-.76-.24-1.25-.75-1.5-.5-.24-1.4-.4-2.7-.46l.25-1.03c1.41.1 3.6.15 6.55.15 2.76 0 4.96-.05 6.61-.15l-.26 1.03c-.95.02-1.9.16-2.81.41a2.7 2.7 0 0 0-1.44 1.19c-.48.9-.84 1.85-1.06 2.84l-6.81 25.62c-.23.82-.39 1.67-.47 2.52Zm-9.26-21.79h-1.13c.2-1.35.31-2.53.31-3.57 0-1.65-.28-3-.83-4.07a6.75 6.75 0 0 0-2.76-2.98 7.86 7.86 0 0 0-4-1.05c-2.85 0-5.61 1.34-8.28 4.03a30.32 30.32 0 0 0-6.48 10.14 31.61 31.61 0 0 0-2.47 11.86c0 3.3.65 5.81 1.96 7.53a6.42 6.42 0 0 0 5.42 2.59c1.5 0 3.11-.36 4.8-1.06a13.8 13.8 0 0 0 6.7-6.09 52.74 52.74 0 0 0 2.32-5.04h1.14a171.55 171.55 0 0 0-3.04 12.39h-1.14c.1-.72.16-1.3.16-1.75 0-.9-.21-1.35-.62-1.35-.25 0-.6.16-1.08.47a27.4 27.4 0 0 1-4.7 2.56c-1.34.53-3.03.8-5.06.8-3.82 0-6.78-1.04-8.88-3.1-2.1-2.07-3.14-5.08-3.14-9.04 0-3.96.99-7.96 2.97-11.98a27.48 27.48 0 0 1 8.14-9.97 18.43 18.43 0 0 1 11.38-3.92c2 0 3.51.28 4.57.85 1.05.57 2.08 1.4 3.12 2.5.24.31.5.47.77.47.31 0 .63-.25.95-.75.33-.5.7-1.28 1.12-2.35h1.08a85.23 85.23 0 0 0-3.3 11.88Zm-31.09-13.2a4.16 4.16 0 0 1 3.36 1.56v-.01c0-.8-.25-1.43-.72-1.91-.49-.48-1.28-.73-2.38-.73-2.2 0-4.06 1.1-5.57 3.3-1.48 2.14-2.93 5.63-4.33 10.47a282.98 282.98 0 0 0-4.34 17.16L302.4 8.76c-1.2.1-2.6.16-4.18.16a49.7 49.7 0 0 1-4.6-.16l-.25 1.04c1.55.07 2.6.23 3.15.5.55.24.82.79.82 1.62 0 .55-.1 1.32-.3 2.32a336.26 336.26 0 0 1-4.5 20.24c-1.37 5.24-2.7 8.87-3.97 10.9-1.1 1.75-2.53 2.65-4.28 2.68h-.15c-1.83.05-2.27-.35-3.33-1.25.13 1.55 1.14 2.34 3.07 2.34 1.24 0 2.27-.3 3.12-.88.92-.66 1.73-1.46 2.4-2.38 1.37-1.82 2.81-5.7 4.3-11.66a428.38 428.38 0 0 0 4.78-21.9l11.76 33.25h1.14c2.1-9.91 3.97-17.74 5.62-23.47s3.23-9.73 4.75-12c1.13-1.73 2.54-2.61 4.23-2.64h.15Zm-61.01 5.23a27.22 27.22 0 0 0-5.86 9.63 33.92 33.92 0 0 0-2.21 12c0 3.35.65 5.98 1.95 7.9 1.32 1.93 3.04 2.9 5.17 2.9 2.58 0 5.07-1.25 7.5-3.72a27.2 27.2 0 0 0 5.86-9.63 33.96 33.96 0 0 0 2.22-12c0-3.35-.65-5.98-1.96-7.9a5.96 5.96 0 0 0-5.16-2.9c-2.58 0-5.08 1.24-7.5 3.72Zm-10.8 9.14a26.34 26.34 0 0 1 7.66-9.9 17.45 17.45 0 0 1 11.12-3.9c3.85 0 6.84 1.1 8.97 3.26 2.13 2.17 3.2 5.24 3.2 9.2 0 3.88-.92 7.82-2.76 11.8a26.5 26.5 0 0 1-7.71 9.86 17.48 17.48 0 0 1-11.1 3.9c-3.82 0-6.79-1.1-8.92-3.26-2.13-2.17-3.2-5.21-3.2-9.14 0-3.89.91-7.83 2.73-11.82Zm-6.71-1.17h-1.13c.2-1.35.31-2.53.31-3.57 0-1.65-.28-3-.83-4.07a6.75 6.75 0 0 0-2.76-2.98 7.86 7.86 0 0 0-4-1.05c-2.85 0-5.61 1.34-8.28 4.03a30.32 30.32 0 0 0-6.48 10.14 31.61 31.61 0 0 0-2.47 11.86c0 3.3.65 5.81 1.96 7.53a6.42 6.42 0 0 0 5.42 2.59c1.5 0 3.11-.36 4.8-1.06a13.8 13.8 0 0 0 6.7-6.09 52.74 52.74 0 0 0 2.32-5.04h1.14a171.55 171.55 0 0 0-3.04 12.39h-1.14c.1-.72.16-1.3.16-1.75 0-.9-.21-1.35-.62-1.35-.25 0-.6.16-1.08.47a27.4 27.4 0 0 1-4.7 2.56c-1.34.53-3.03.8-5.06.8-3.82 0-6.78-1.04-8.88-3.1-2.1-2.07-3.14-5.08-3.14-9.04 0-3.96.99-7.96 2.97-11.98a27.48 27.48 0 0 1 8.14-9.97 18.43 18.43 0 0 1 11.38-3.92c2 0 3.51.28 4.57.85 1.05.57 2.08 1.4 3.12 2.5.24.31.5.47.77.47.31 0 .63-.25.96-.75.32-.5.7-1.28 1.11-2.35h1.08a85.23 85.23 0 0 0-3.3 11.88ZM202.72 8.76V9.8a4.2 4.2 0 0 0-2.01 1.31c-.85 1-1.56 2.1-2.12 3.29l-8.1 16.05v9.4c0 1.3.1 2.26.3 2.84a1.86 1.86 0 0 0 1.17 1.2c.57.2 1.47.33 2.7.4v1.03c-1.58-.1-3.76-.15-6.54-.15-2.96 0-5.17.05-6.6.15V44.3c1.23-.06 2.13-.2 2.7-.4a1.85 1.85 0 0 0 1.16-1.2c.2-.58.31-1.53.31-2.84v-7.74l-10.48-19.37a8.5 8.5 0 0 0-1.62-2.3c-.46-.4-.92-.6-1.37-.6V8.77a111.1 111.1 0 0 0 11.77 0v1.09c-2.41 0-3.61.66-3.61 1.96a4 4 0 0 0 .51 1.8l8.57 16.48 6.6-13.12c.93-1.82 1.4-3.3 1.4-4.44 0-.96-.38-1.65-1.14-2.06a7.65 7.65 0 0 0-3.4-.67V8.76c1.95.1 3.93.16 5.93.16 1.55 0 2.83-.05 3.87-.16Zm-41.54.16a17.9 17.9 0 0 1 4.23 2.48c.38.3.7.46.99.46.68 0 1.13-1.03 1.33-3.1h1.2c-.15 2.24-.21 6.2-.21 11.88h-1.2a40.06 40.06 0 0 0-1.03-4.83 8.62 8.62 0 0 0-1.54-2.82A9.55 9.55 0 0 0 161 9.98a13.26 13.26 0 0 0-5.19-1.01c-2.22 0-4.18.74-5.85 2.22-1.67 1.48-2.97 3.59-3.9 6.32a30.03 30.03 0 0 0-1.4 9.64c0 3.75.5 6.97 1.5 9.65 1 2.69 2.4 4.73 4.16 6.13a9.47 9.47 0 0 0 6.01 2.08c1.72 0 3.4-.32 5-.98a8.42 8.42 0 0 0 3.83-2.94 9.91 9.91 0 0 0 1.49-3.1c.3-1.1.6-2.79.88-5.06h1.19c-.04 4.13.03 8.26.2 12.4h-1.19c-.04-.8-.18-1.6-.43-2.36-.2-.46-.46-.7-.8-.7-.28 0-.64.15-1.09.42-1.37 1-2.86 1.85-4.43 2.5-1.63.61-3.37.9-5.11.86a16.3 16.3 0 0 1-8.6-2.23 14.8 14.8 0 0 1-5.72-6.42c-1.36-2.8-2.04-6.16-2.04-10.05 0-3.78.7-7.14 2.1-10.07a16.22 16.22 0 0 1 5.82-6.81 15.25 15.25 0 0 1 8.49-2.43c2.06 0 3.82.3 5.26.88Zm-27.2 32.15-12.6-32.49h-.82l-12.12 31.3c-1 2.58-2.36 4.08-4.08 4.49v1.03c1.03-.1 2.32-.15 3.87-.15 2 0 3.97.05 5.93.15v-1.03a6.57 6.57 0 0 1-3.38-.78c-.74-.47-1.11-1.25-1.11-2.32 0-.96.34-2.37 1.04-4.23l8.4-21.95 5.78 15.44.42 1.04 3.14 8.46c.42 1.04.62 1.85.62 2.43 0 .69-.28 1.17-.85 1.43-.56.24-1.5.41-2.8.48v1.03c1.44-.1 3.64-.15 6.6-.15 2.3 0 4.14.05 5.52.15v-1.03c-1.55-.06-2.74-1.17-3.56-3.3Zm-33.04-10.18a.56.56 0 0 1-.29-.2h-.07a18.2 18.2 0 0 0-2.31-.34c-.8-.07-1.63-.07-2.43-.2-.19-.03-.3-.17-.39-.34-1.06 0-2.05-.02-2.93-.05l-.05.05c-.28.19-.62.2-.95.2-.25 0-.5 0-.76.04l-.52.09v.56c1.54.07 2.66.23 3.35.46a2.33 2.33 0 0 1 1.45 1.35c.27.66.41 1.7.41 3.15v4.95c0 .7-.1 1.24-.28 1.63-.3.5-.72.93-1.22 1.22a9.07 9.07 0 0 1-5.37 1.6c-4.23 0-7.33-1.44-9.3-4.32-1.99-2.87-2.98-7.4-2.98-13.6 0-3.65.47-6.84 1.4-9.58.93-2.74 2.25-4.84 3.97-6.32A8.86 8.86 0 0 1 87.65 9c1.76 0 3.43.37 5.04 1.09 1.51.65 2.85 1.66 3.9 2.94a8.81 8.81 0 0 1 1.59 3.12 42 42 0 0 1 .98 4.53h1.19c0-5.69.07-9.65.2-11.88h-1.18c-.2 2.1-.64 3.14-1.29 3.14-.25 0-.59-.16-1.03-.51a24.11 24.11 0 0 0-4.29-2.5c-1.3-.57-2.97-.86-5-.86-3.03-.05-6 .79-8.56 2.4a16.23 16.23 0 0 0-5.92 6.87 23.74 23.74 0 0 0-2.14 10.36c0 3.82.68 7.1 2.02 9.86a14.38 14.38 0 0 0 5.8 6.33c2.53 1.47 5.57 2.2 9.1 2.2 1.59 0 3.02-.24 4.32-.7a13.73 13.73 0 0 0 3.74-2.09 8.7 8.7 0 0 1 1.08-.72c.2-.11.42-.16.62-.16.42 0 .74.32.98.95.25.64.38 1.3.41 2h1.04V35.14c0-1.3.06-2.26.18-2.84.12-.59.36-.98.72-1.19.08-.05.18-.09.28-.13l-.49-.1Z"
                itemprop="image" />
            <path
                d="M82.01 33.63c4-2.7 8.86-4.41 13.75-3.86 11.97 1.47 23.06 7.35 35.1 2.74 1.65-.64 3.43-1.21 4.39-2.77.3-.49.43-1.11.18-1.68 1.06 2.49-2.5 4.24-4.33 5.02a30.49 30.49 0 0 1-12.5 2.2c-7.83-.34-15.3-3.38-22.94-4.62-4.75-.72-9.49.68-13.65 2.97ZM65.8 45.41c-2.34-.1-6.28-.15-11.81-.15-6.61 0-11.6.05-14.97.15v-1.03a9.66 9.66 0 0 0 2.7-.41 1.86 1.86 0 0 0 1.17-1.19c.2-.58.3-1.53.3-2.84V14.32c0-1.3-.1-2.25-.3-2.83a1.86 1.86 0 0 0-1.16-1.2 10.3 10.3 0 0 0-2.71-.4V8.85a540.37 540.37 0 0 0 25.74 0 58.26 58.26 0 0 0-.35 6.1c0 1.34.05 2.41.15 3.2h-1.19a23.8 23.8 0 0 0-.93-4.98 4.18 4.18 0 0 0-1.9-2.38c-.9-.5-2.26-.75-4.08-.75h-4.28c-1.24 0-2.15.1-2.71.28a1.78 1.78 0 0 0-1.16 1.17c-.2.58-.31 1.53-.31 2.83v12.2h3.4c1.2 0 2.13-.3 2.79-.86a4.22 4.22 0 0 0 1.32-2.02c.22-.76.4-1.74.54-2.9l.15-1.04h1.2a67.5 67.5 0 0 0-.16 4.85v2.48c0 1.76.1 4.2.3 7.33h-1.18c-.04-.24-.14-1.07-.31-2.5a5.05 5.05 0 0 0-1.43-3.23 4.51 4.51 0 0 0-3.22-1.08H48v12.4c0 1.3.1 2.25.3 2.83.21.58.6.97 1.17 1.16.56.2 1.47.28 2.7.28h3.77c2.14 0 3.76-.28 4.88-.85 1.13-.57 2-1.55 2.45-2.73.52-1.26.9-3.1 1.14-5.56h1.18a34.73 34.73 0 0 0-.15 3.72c0 1.97.11 4.17.36 6.61ZM21.73 9.8c-1.24.07-2.15.2-2.72.41a1.86 1.86 0 0 0-1.15 1.19c-.2.59-.31 1.53-.31 2.84v25.61c0 1.31.1 2.26.3 2.84.21.59.6.98 1.17 1.17a9.4 9.4 0 0 0 2.7.28h3.77c2.14 0 3.76-.3 4.88-.9a5.33 5.33 0 0 0 2.45-2.92c.52-1.35.9-3.29 1.14-5.84h1.18c-.1 1.07-.15 2.48-.15 4.24 0 1.96.12 4.16.36 6.6-2.34-.1-6.28-.15-11.82-.15-4.98-.02-9.97.03-14.96.15V44.3c1.24-.07 2.14-.22 2.71-.42a1.86 1.86 0 0 0 1.16-1.19c.2-.58.3-1.53.3-2.84v-25.6c0-1.32-.1-2.26-.3-2.85a1.86 1.86 0 0 0-1.16-1.19 10 10 0 0 0-2.71-.41V8.76c1.44.1 3.65.16 6.6.16 2.76 0 4.94-.05 6.56-.16V9.8Z"
                itemprop="image" />
        </g>
    </g>
</svg>
