<svg xmlns="http://www.w3.org/2000/svg" xmlns:xlink="http://www.w3.org/1999/xlink" width="512" height="512" x="0" y="0" viewBox="0 0 682.667 682.667" style="enable-background:new 0 0 512 512" xml:space="preserve" class="">  <g>    <defs stroke-width="30" style="stroke-width: 30;">      <clipPath id="a" stroke-width="30" style="stroke-width: 30;">        <path d="M0 512h512V0H0Z" fill="#fefefe" opacity="1" data-original="#000000" stroke-width="30" style="stroke-width: 30;"></path>      </clipPath>    </defs>    <g clip-path="url(#a)" transform="matrix(1.33333 0 0 -1.33333 0 682.667)" stroke-width="30" style="stroke-width: 30;">      <path d="M0 0c0 26.621 21.58 48.203 48.2 48.203 26.619 0 48.197-21.582 48.197-48.203H144.6v-40.164c0-22.093-18.076-40.166-40.166-40.166H-8.033c-22.092 0-40.167 18.073-40.167 40.166V0Z" style="stroke-width: 30; stroke-linecap: round; stroke-linejoin: round; stroke-miterlimit: 10; stroke-dasharray: none; stroke-opacity: 1;" transform="translate(207.8 448.797)" fill="none" stroke="#fefefe" stroke-width="30" stroke-linecap="round" stroke-linejoin="round" stroke-miterlimit="10" stroke-dasharray="none" stroke-opacity="" data-original="#000000" opacity="1" class=""></path>      <path d="M0 0h-88.369c-22.092 0-40.167-18.074-40.167-40.164V-393.63c0-22.092 18.075-40.167 40.167-40.167h273.132c22.092 0 40.166 18.075 40.166 40.167v353.466C224.929-18.074 206.855 0 184.763 0H96.406" style="stroke-width: 30; stroke-linecap: round; stroke-linejoin: round; stroke-miterlimit: 10; stroke-dasharray: none; stroke-opacity: 1;" transform="translate(207.803 448.797)" fill="none" stroke="#fefefe" stroke-width="30" stroke-linecap="round" stroke-linejoin="round" stroke-miterlimit="10" stroke-dasharray="none" stroke-opacity="" data-original="#000000" opacity="1" class=""></path>      <path d="m0 0-32.134-32.133-16.069 16.065" style="stroke-width: 30; stroke-linecap: round; stroke-linejoin: round; stroke-miterlimit: 10; stroke-dasharray: none; stroke-opacity: 1;" transform="translate(191.737 111.4)" fill="none" stroke="#fefefe" stroke-width="30" stroke-linecap="round" stroke-linejoin="round" stroke-miterlimit="10" stroke-dasharray="none" stroke-opacity="" data-original="#000000" opacity="1" class=""></path>      <path d="m0 0-32.134-32.134-16.069 16.064" style="stroke-width: 30; stroke-linecap: round; stroke-linejoin: round; stroke-miterlimit: 10; stroke-dasharray: none; stroke-opacity: 1;" transform="translate(191.737 207.8)" fill="none" stroke="#fefefe" stroke-width="30" stroke-linecap="round" stroke-linejoin="round" stroke-miterlimit="10" stroke-dasharray="none" stroke-opacity="" data-original="#000000" opacity="1" class=""></path>      <path d="m0 0-32.134-32.134-16.069 16.068" style="stroke-width: 30; stroke-linecap: round; stroke-linejoin: round; stroke-miterlimit: 10; stroke-dasharray: none; stroke-opacity: 1;" transform="translate(191.737 304.197)" fill="none" stroke="#fefefe" stroke-width="30" stroke-linecap="round" stroke-linejoin="round" stroke-miterlimit="10" stroke-dasharray="none" stroke-opacity="" data-original="#000000" opacity="1" class=""></path>      <path d="M0 0h112.463" style="stroke-width: 30; stroke-linecap: round; stroke-linejoin: round; stroke-miterlimit: 10; stroke-dasharray: none; stroke-opacity: 1;" transform="translate(256.003 79.268)" fill="none" stroke="#fefefe" stroke-width="30" stroke-linecap="round" stroke-linejoin="round" stroke-miterlimit="10" stroke-dasharray="none" stroke-opacity="" data-original="#000000" opacity="1" class=""></path>      <path d="M0 0h112.463" style="stroke-width: 30; stroke-linecap: round; stroke-linejoin: round; stroke-miterlimit: 10; stroke-dasharray: none; stroke-opacity: 1;" transform="translate(256.003 175.667)" fill="none" stroke="#fefefe" stroke-width="30" stroke-linecap="round" stroke-linejoin="round" stroke-miterlimit="10" stroke-dasharray="none" stroke-opacity="" data-original="#000000" opacity="1" class=""></path>      <path d="M0 0h112.463" style="stroke-width: 30; stroke-linecap: round; stroke-linejoin: round; stroke-miterlimit: 10; stroke-dasharray: none; stroke-opacity: 1;" transform="translate(256.003 272.063)" fill="none" stroke="#fefefe" stroke-width="30" stroke-linecap="round" stroke-linejoin="round" stroke-miterlimit="10" stroke-dasharray="none" stroke-opacity="" data-original="#000000" opacity="1" class=""></path>    </g>  </g></svg>