<svg xmlns="http://www.w3.org/2000/svg" xmlns:xlink="http://www.w3.org/1999/xlink" width="512" height="512" x="0" y="0" viewBox="0 0 515.418 515.418" style="enable-background:new 0 0 512 512" xml:space="preserve" class="">  <g>    <path d="m321.736 398.564-63.678 36.387-63.678-36.387c-61.51-35.149-99.47-100.562-99.47-171.407V54.362l163.149-38.94 163.149 38.94v172.796c-.001 70.844-37.962 136.257-99.472 171.406z" style="stroke-width: 24; stroke-miterlimit: 10;" fill="none" stroke="#fefefe" stroke-width="24" stroke-miterlimit="10" data-original="#000000" opacity="1"></path>    <path d="m194.944 399.127-70.124 89.615-34.086-58.472-64.462-20.627 85.569-104.013M320.836 399.464l69.786 89.278 34.085-58.472 64.463-20.627-84.527-102.971M258.058 124.8l31.065 42.532 50.049 16.401-30.85 42.687-.133 52.668-50.131-16.15-50.131 16.15-.132-52.668-30.85-42.687 50.049-16.401z" style="stroke-width: 24; stroke-miterlimit: 10;" fill="none" stroke="#fefefe" stroke-width="24" stroke-miterlimit="10" data-original="#000000" opacity="1"></path>  </g></svg>