<svg xmlns="http://www.w3.org/2000/svg" xmlns:xlink="http://www.w3.org/1999/xlink" width="512" height="512" x="0" y="0" viewBox="0 0 682.667 682.667" style="enable-background:new 0 0 512 512" xml:space="preserve" class="">  <g>    <defs stroke-width="30" style="stroke-width: 30;">      <clipPath id="a" stroke-width="30" style="stroke-width: 30;">        <path d="M0 512h512V0H0Z" fill="#fefefe" opacity="1" data-original="#000000" stroke-width="30" style="stroke-width: 30;"></path>      </clipPath>    </defs>    <g clip-path="url(#a)" transform="matrix(1.33333 0 0 -1.33333 0 682.667)" stroke-width="30" style="stroke-width: 30;">      <path d="M0 0c0 22.092 17.909 40 40 40S80 22.092 80 0 62.091-40 40-40 0-22.092 0 0Z" style="stroke-width: 30; stroke-linecap: round; stroke-linejoin: round; stroke-miterlimit: 10; stroke-dasharray: none; stroke-opacity: 1;" transform="translate(216 452)" fill="none" stroke="#fefefe" stroke-width="30" stroke-linecap="round" stroke-linejoin="round" stroke-miterlimit="10" stroke-dasharray="none" stroke-opacity="" data-original="#000000" opacity="1" class=""></path>      <path d="M0 0v87a50.001 50.001 0 0 1-24.649 43.097l-1.702 1.001A50 50 0 0 0-51 174.194V263c0 49.981 40.518 70 90.5 70s90.5-20.019 90.5-70v-89.094a50 50 0 0 0-24.275-42.874l-1.45-.87A50 50 0 0 1 80 87.288V0" style="stroke-width: 30; stroke-linecap: round; stroke-linejoin: round; stroke-miterlimit: 10; stroke-dasharray: none; stroke-opacity: 1;" transform="translate(216 20)" fill="none" stroke="#fefefe" stroke-width="30" stroke-linecap="round" stroke-linejoin="round" stroke-miterlimit="10" stroke-dasharray="none" stroke-opacity="" data-original="#000000" opacity="1" class=""></path>      <path d="M0 0c0 22.092 17.909 40 40 40S80 22.092 80 0 62.091-40 40-40 0-22.092 0 0Z" style="stroke-width: 30; stroke-linecap: round; stroke-linejoin: round; stroke-miterlimit: 10; stroke-dasharray: none; stroke-opacity: 1;" transform="translate(60 412)" fill="none" stroke="#fefefe" stroke-width="30" stroke-linecap="round" stroke-linejoin="round" stroke-miterlimit="10" stroke-dasharray="none" stroke-opacity="" data-original="#000000" opacity="1" class=""></path>      <path d="M0 0v70" style="stroke-width: 30; stroke-linecap: round; stroke-linejoin: round; stroke-miterlimit: 10; stroke-dasharray: none; stroke-opacity: 1;" transform="translate(140 20)" fill="none" stroke="#fefefe" stroke-width="30" stroke-linecap="round" stroke-linejoin="round" stroke-miterlimit="10" stroke-dasharray="none" stroke-opacity="" data-original="#000000" opacity="1" class=""></path>      <path d="M0 0v70a50 50 0 0 1-20 40 50 50 0 0 0-20 40v85c0 43.078 34.922 57.5 78 57.5" style="stroke-width: 30; stroke-linecap: round; stroke-linejoin: round; stroke-miterlimit: 10; stroke-dasharray: none; stroke-opacity: 1;" transform="translate(60 20)" fill="none" stroke="#fefefe" stroke-width="30" stroke-linecap="round" stroke-linejoin="round" stroke-miterlimit="10" stroke-dasharray="none" stroke-opacity="" data-original="#000000" opacity="1" class=""></path>      <path d="M0 0c0 22.092-17.909 40-40 40S-80 22.092-80 0s17.909-40 40-40S0-22.092 0 0z" style="stroke-width: 30; stroke-linecap: round; stroke-linejoin: round; stroke-miterlimit: 10; stroke-dasharray: none; stroke-opacity: 1;" transform="translate(452 412)" fill="none" stroke="#fefefe" stroke-width="30" stroke-linecap="round" stroke-linejoin="round" stroke-miterlimit="10" stroke-dasharray="none" stroke-opacity="" data-original="#000000" opacity="1" class=""></path>      <path d="M0 0v70" style="stroke-width: 30; stroke-linecap: round; stroke-linejoin: round; stroke-miterlimit: 10; stroke-dasharray: none; stroke-opacity: 1;" transform="translate(372 20)" fill="none" stroke="#fefefe" stroke-width="30" stroke-linecap="round" stroke-linejoin="round" stroke-miterlimit="10" stroke-dasharray="none" stroke-opacity="" data-original="#000000" opacity="1" class=""></path>      <path d="M0 0v70a50 50 0 0 0 20 40 50 50 0 0 1 20 40v85c0 43.078-34.922 57.5-78 57.5" style="stroke-width: 30; stroke-linecap: round; stroke-linejoin: round; stroke-miterlimit: 10; stroke-dasharray: none; stroke-opacity: 1;" transform="translate(452 20)" fill="none" stroke="#fefefe" stroke-width="30" stroke-linecap="round" stroke-linejoin="round" stroke-miterlimit="10" stroke-dasharray="none" stroke-opacity="" data-original="#000000" opacity="1" class=""></path>    </g>  </g></svg>