<svg xmlns="http://www.w3.org/2000/svg" xmlns:xlink="http://www.w3.org/1999/xlink" width="512" height="512" x="0" y="0" viewBox="0 0 682.667 682.667" style="enable-background:new 0 0 512 512" xml:space="preserve">  <g>    <defs stroke-width="24" style="stroke-width: 24;">      <clipPath id="a" stroke-width="24" style="stroke-width: 24;">        <path d="M0 512h512V0H0Z" fill="#fefefe" opacity="1" data-original="#000000" stroke-width="24" style="stroke-width: 24;"></path>      </clipPath>    </defs>    <g clip-path="url(#a)" transform="matrix(1.33333 0 0 -1.33333 0 682.667)" stroke-width="24" style="stroke-width: 24;">      <path d="m0 0 48.036-48.036c12.381-12.381 32.453-12.381 44.834 0v0c12.38 12.38 12.38 32.453 0 44.833" style="stroke-width: 24; stroke-linecap: round; stroke-linejoin: round; stroke-miterlimit: 10; stroke-dasharray: none; stroke-opacity: 1;" transform="translate(320.048 163.613)" fill="none" stroke="#fefefe" stroke-width="24" stroke-linecap="round" stroke-linejoin="round" stroke-miterlimit="10" stroke-dasharray="none" stroke-opacity="" data-original="#000000" opacity="1"></path>      <path d="m0 0 48.036-48.036c12.381-12.381 32.453-12.381 44.834 0 12.38 12.381 12.38 32.453 0 44.834" style="stroke-width: 24; stroke-linecap: round; stroke-linejoin: round; stroke-miterlimit: 10; stroke-dasharray: none; stroke-opacity: 1;" transform="translate(268.81 125.184)" fill="none" stroke="#fefefe" stroke-width="24" stroke-linecap="round" stroke-linejoin="round" stroke-miterlimit="10" stroke-dasharray="none" stroke-opacity="" data-original="#000000" opacity="1"></path>      <path d="m0 0 137.702-137.702c12.38-12.381 12.38-32.453 0-44.834-12.381-12.38-32.453-12.38-44.834 0L44.832-134.5" style="stroke-width: 24; stroke-linecap: round; stroke-linejoin: round; stroke-miterlimit: 10; stroke-dasharray: none; stroke-opacity: 1;" transform="translate(326.455 336.541)" fill="none" stroke="#fefefe" stroke-width="24" stroke-linecap="round" stroke-linejoin="round" stroke-miterlimit="10" stroke-dasharray="none" stroke-opacity="" data-original="#000000" opacity="1"></path>      <path d="m0 0-44.834 44.834c-49.522 49.522-49.522 129.813 0 179.335v0c49.521 49.522 129.812 49.522 179.334 0l32.025-32.025" style="stroke-width: 24; stroke-linecap: round; stroke-linejoin: round; stroke-miterlimit: 10; stroke-dasharray: none; stroke-opacity: 1;" transform="translate(89.476 214.85)" fill="none" stroke="#fefefe" stroke-width="24" stroke-linecap="round" stroke-linejoin="round" stroke-miterlimit="10" stroke-dasharray="none" stroke-opacity="" data-original="#000000" opacity="1"></path>      <path d="M0 0c12.38-12.381 12.38-32.453 0-44.834-12.38-12.38-32.453-12.38-44.833 0l-9.61 9.61" style="stroke-width: 24; stroke-linecap: round; stroke-linejoin: round; stroke-miterlimit: 10; stroke-dasharray: none; stroke-opacity: 1;" transform="translate(304.036 89.958)" fill="none" stroke="#fefefe" stroke-width="24" stroke-linecap="round" stroke-linejoin="round" stroke-miterlimit="10" stroke-dasharray="none" stroke-opacity="" data-original="#000000" opacity="1"></path>      <path d="m0 0 32.024 32.024c49.522 49.522 49.522 129.812 0 179.334v.001c-49.522 49.521-129.813 49.521-179.335 0l-73.655-73.656c-12.38-12.38-12.38-32.453 0-44.833 12.381-12.381 32.453-12.381 44.834 0l54.441 54.441" style="stroke-width: 24; stroke-linecap: round; stroke-linejoin: round; stroke-miterlimit: 10; stroke-dasharray: none; stroke-opacity: 1;" transform="translate(435.334 227.661)" fill="none" stroke="#fefefe" stroke-width="24" stroke-linecap="round" stroke-linejoin="round" stroke-miterlimit="10" stroke-dasharray="none" stroke-opacity="" data-original="#000000" opacity="1"></path>      <path d="M0 0c-12.38-12.38-32.453-12.38-44.833 0-12.381 12.381-12.381 32.454 0 44.834 12.38 12.38 32.453 12.38 44.833 0C12.381 32.454 12.381 12.381 0 0Z" style="stroke-width: 24; stroke-linecap: round; stroke-linejoin: round; stroke-miterlimit: 10; stroke-dasharray: none; stroke-opacity: 1;" transform="translate(246.393 51.529)" fill="none" stroke="#fefefe" stroke-width="24" stroke-linecap="round" stroke-linejoin="round" stroke-miterlimit="10" stroke-dasharray="none" stroke-opacity="" data-original="#000000" opacity="1"></path>      <path d="M0 0c-12.38-12.38-32.453-12.38-44.833 0-12.381 12.38-12.381 32.453 0 44.833 12.38 12.381 32.453 12.381 44.833 0C12.38 32.453 12.38 12.38 0 0Z" style="stroke-width: 24; stroke-linecap: round; stroke-linejoin: round; stroke-miterlimit: 10; stroke-dasharray: none; stroke-opacity: 1;" transform="translate(201.56 96.363)" fill="none" stroke="#fefefe" stroke-width="24" stroke-linecap="round" stroke-linejoin="round" stroke-miterlimit="10" stroke-dasharray="none" stroke-opacity="" data-original="#000000" opacity="1"></path>      <path d="M0 0c-12.38-12.38-32.453-12.38-44.833 0-12.381 12.38-12.381 32.453 0 44.833 12.38 12.381 32.453 12.381 44.833 0C12.38 32.453 12.38 12.38 0 0Z" style="stroke-width: 24; stroke-linecap: round; stroke-linejoin: round; stroke-miterlimit: 10; stroke-dasharray: none; stroke-opacity: 1;" transform="translate(156.726 141.196)" fill="none" stroke="#fefefe" stroke-width="24" stroke-linecap="round" stroke-linejoin="round" stroke-miterlimit="10" stroke-dasharray="none" stroke-opacity="" data-original="#000000" opacity="1"></path>    </g>  </g></svg>