<svg xmlns="http://www.w3.org/2000/svg" xmlns:xlink="http://www.w3.org/1999/xlink" width="512" height="512" x="0" y="0" viewBox="0 0 682.667 682.667" style="enable-background:new 0 0 512 512" xml:space="preserve" class="">  <g>    <defs stroke-width="18" style="stroke-width: 18;">      <clipPath id="a" stroke-width="18" style="stroke-width: 18;">        <path d="M0 512h512V0H0Z" fill="#fefefe" opacity="1" data-original="#000000" stroke-width="18" style="stroke-width: 18;"></path>      </clipPath>    </defs>    <g clip-path="url(#a)" transform="matrix(1.33333 0 0 -1.33333 0 682.667)" stroke-width="18" style="stroke-width: 18;">      <path d="M0 0c-64.753-64.753-169.739-64.753-234.493 0-64.753 64.754-64.753 169.739 0 234.492 64.754 64.754 169.74 64.754 234.493 0C64.753 169.739 64.753 64.754 0 0Z" style="stroke-width: 18; stroke-linecap: round; stroke-linejoin: round; stroke-miterlimit: 10; stroke-dasharray: none; stroke-opacity: 1;" transform="translate(456.102 221.784)" fill="none" stroke="#fefefe" stroke-width="18" stroke-linecap="round" stroke-linejoin="round" stroke-miterlimit="10" stroke-dasharray="none" stroke-opacity="" data-original="#000000" opacity="1"></path>      <path d="m0 0 16.351 16.351 40.877 1.548-1.549-40.878-139.588-139.587c-10.86-10.861-28.468-10.861-39.328 0-10.861 10.86-10.861 28.468 0 39.328l98.89 98.891" style="stroke-width: 18; stroke-linecap: round; stroke-linejoin: round; stroke-miterlimit: 10; stroke-dasharray: none; stroke-opacity: 1;" transform="translate(138.716 178.22)" fill="none" stroke="#fefefe" stroke-width="18" stroke-linecap="round" stroke-linejoin="round" stroke-miterlimit="10" stroke-dasharray="none" stroke-opacity="" data-original="#000000" opacity="1"></path>      <path d="m0 0 25.665 25.664" style="stroke-width: 18; stroke-linecap: round; stroke-linejoin: round; stroke-miterlimit: 10; stroke-dasharray: none; stroke-opacity: 1;" transform="translate(195.944 196.12)" fill="none" stroke="#fefefe" stroke-width="18" stroke-linecap="round" stroke-linejoin="round" stroke-miterlimit="10" stroke-dasharray="none" stroke-opacity="" data-original="#000000" opacity="1"></path>      <path d="m0 0 39.329-39.328" style="stroke-width: 18; stroke-linecap: butt; stroke-linejoin: round; stroke-miterlimit: 10; stroke-dasharray: none; stroke-opacity: 1;" transform="translate(22.55 62.054)" fill="none" stroke="#fefefe" stroke-width="18" stroke-linecap="butt" stroke-linejoin="round" stroke-miterlimit="10" stroke-dasharray="none" stroke-opacity="" data-original="#000000" opacity="1"></path>      <path d="m0 0 39.329-39.329" style="stroke-width: 18; stroke-linecap: butt; stroke-linejoin: round; stroke-miterlimit: 10; stroke-dasharray: none; stroke-opacity: 1;" transform="translate(47.154 86.658)" fill="none" stroke="#fefefe" stroke-width="18" stroke-linecap="butt" stroke-linejoin="round" stroke-miterlimit="10" stroke-dasharray="none" stroke-opacity="" data-original="#000000" opacity="1"></path>      <path d="M0 0c-52.995-52.995-52.995-138.916 0-191.911 52.995-52.995 138.917-52.995 191.912 0 52.994 52.995 52.994 138.916 0 191.911-45.437 45.438-115.079 51.917-167.42 19.439" style="stroke-width: 18; stroke-linecap: round; stroke-linejoin: round; stroke-miterlimit: 10; stroke-dasharray: none; stroke-opacity: 1;" transform="translate(242.9 434.986)" fill="none" stroke="#fefefe" stroke-width="18" stroke-linecap="round" stroke-linejoin="round" stroke-miterlimit="10" stroke-dasharray="none" stroke-opacity="" data-original="#000000" opacity="1"></path>      <path d="M0 0a81.95 81.95 0 0 0-11.755-22.276" style="stroke-width: 18; stroke-linecap: round; stroke-linejoin: round; stroke-miterlimit: 10; stroke-dasharray: none; stroke-opacity: 1;" transform="translate(427.33 304.988)" fill="none" stroke="#fefefe" stroke-width="18" stroke-linecap="round" stroke-linejoin="round" stroke-miterlimit="10" stroke-dasharray="none" stroke-opacity="" data-original="#000000" opacity="1"></path>      <path d="M0 0c52.167 0 94.458-42.29 94.458-94.458" style="stroke-width: 18; stroke-linecap: round; stroke-linejoin: round; stroke-miterlimit: 10; stroke-dasharray: none; stroke-opacity: 1;" transform="translate(338.856 433.488)" fill="none" stroke="#fefefe" stroke-width="18" stroke-linecap="round" stroke-linejoin="round" stroke-miterlimit="10" stroke-dasharray="none" stroke-opacity="" data-original="#000000" opacity="1"></path>    </g>  </g></svg>