<svg xmlns="http://www.w3.org/2000/svg" xmlns:xlink="http://www.w3.org/1999/xlink" width="512" height="512" x="0" y="0" viewBox="0 0 682.667 682.667" style="enable-background:new 0 0 512 512" xml:space="preserve" class="">  <g>    <defs stroke-width="30" style="stroke-width: 30;">      <clipPath id="a" stroke-width="30" style="stroke-width: 30;">        <path d="M0 512h512V0H0Z" fill="#fefefe" opacity="1" data-original="#000000" stroke-width="30" style="stroke-width: 30;"></path>      </clipPath>    </defs>    <g clip-path="url(#a)" transform="matrix(1.33333 0 0 -1.33333 0 682.667)" stroke-width="30" style="stroke-width: 30;">      <path d="M0 0c-58.839-58.839-154.237-58.839-213.077 0-58.839 58.84-58.839 154.237 0 213.077 58.84 58.839 154.238 58.839 213.077 0C58.839 154.237 58.839 58.84 0 0Z" style="stroke-width: 30; stroke-linecap: round; stroke-linejoin: miter; stroke-miterlimit: 10; stroke-dasharray: none; stroke-opacity: 1;" transform="translate(452.87 239.794)" fill="none" stroke="#fefefe" stroke-width="30" stroke-linecap="round" stroke-linejoin="miter" stroke-miterlimit="10" stroke-dasharray="none" stroke-opacity="" data-original="#000000" opacity="1" class=""></path>      <path d="m0 0-43.604-43.604" style="stroke-width: 30; stroke-linecap: butt; stroke-linejoin: miter; stroke-miterlimit: 10; stroke-dasharray: none; stroke-opacity: 1;" transform="translate(239.794 239.794)" fill="none" stroke="#fefefe" stroke-width="30" stroke-linecap="butt" stroke-linejoin="miter" stroke-miterlimit="10" stroke-dasharray="none" stroke-opacity="" data-original="#000000" opacity="1" class=""></path>      <path d="M0 0c-15.195 15.195-15.195 39.832 0 55.028l114.766 114.766c15.195 15.195 39.832 15.195 55.027 0l.001-.001c15.195-15.195 15.195-39.832 0-55.027L55.028 0C39.832-15.195 15.195-15.195 0 0Z" style="stroke-width: 30; stroke-linecap: butt; stroke-linejoin: miter; stroke-miterlimit: 10; stroke-dasharray: none; stroke-opacity: 1;" transform="translate(26.396 26.396)" fill="none" stroke="#fefefe" stroke-width="30" stroke-linecap="butt" stroke-linejoin="miter" stroke-miterlimit="10" stroke-dasharray="none" stroke-opacity="" data-original="#000000" opacity="1" class=""></path>      <path d="m0 0 55.027-55.027" style="stroke-width: 30; stroke-linecap: butt; stroke-linejoin: miter; stroke-miterlimit: 10; stroke-dasharray: none; stroke-opacity: 1;" transform="translate(62.566 117.594)" fill="none" stroke="#fefefe" stroke-width="30" stroke-linecap="butt" stroke-linejoin="miter" stroke-miterlimit="10" stroke-dasharray="none" stroke-opacity="" data-original="#000000" opacity="1" class=""></path>    </g>  </g></svg>