<svg xmlns="http://www.w3.org/2000/svg" xmlns:xlink="http://www.w3.org/1999/xlink" width="512" height="512" x="0" y="0" viewBox="0 0 682.667 682.667" style="enable-background:new 0 0 512 512" xml:space="preserve" class="">  <g>    <defs>      <clipPath id="b">        <path d="M0 512h512V0H0Z" fill="#fefefe" opacity="1" data-original="#000000"></path>      </clipPath>    </defs>    <mask id="a">      <rect width="100%" height="100%" fill="#ffffff" opacity="1" data-original="#ffffff"></rect>      <path d="M0 0c0-8.284-6.716-15-15-15-8.284 0-15 6.716-15 15 0 8.284 6.716 15 15 15C-6.716 15 0 8.284 0 0" style="fill-opacity:1;fill-rule:nonzero;stroke:none" transform="matrix(1.33333 0 0 -1.33333 602.667 396)" fill="#ffffff" data-original="#ffffff"></path>    </mask>    <g mask="url(#a)">      <g clip-path="url(#b)" transform="matrix(1.33333 0 0 -1.33333 0 682.667)">        <path d="M0 0v-40" style="stroke-width:30;stroke-linecap:round;stroke-linejoin:round;stroke-miterlimit:10;stroke-dasharray:none;stroke-opacity:1" transform="translate(235 497)" fill="none" stroke="#fefefe" stroke-width="30" stroke-linecap="round" stroke-linejoin="round" stroke-miterlimit="10" stroke-dasharray="none" stroke-opacity="" data-original="#000000" opacity="1"></path>        <path d="M0 0v-40" style="stroke-width:30;stroke-linecap:round;stroke-linejoin:round;stroke-miterlimit:10;stroke-dasharray:none;stroke-opacity:1" transform="translate(75 497)" fill="none" stroke="#fefefe" stroke-width="30" stroke-linecap="round" stroke-linejoin="round" stroke-miterlimit="10" stroke-dasharray="none" stroke-opacity="" data-original="#000000" opacity="1"></path>        <path d="m0 0-40.28 44.452c-19.265-16.583-44.32-26.62-71.673-26.62-27.354 0-52.408 10.037-71.673 26.62L-223.906 0c22.773-19.969 50.927-33.909 81.953-39.459v-52.709h60v52.709C-50.927-33.909-22.773-19.969 0 0Z" style="stroke-width:30;stroke-linecap:round;stroke-linejoin:round;stroke-miterlimit:10;stroke-dasharray:none;stroke-opacity:1" transform="translate(266.953 249.168)" fill="none" stroke="#fefefe" stroke-width="30" stroke-linecap="round" stroke-linejoin="round" stroke-miterlimit="10" stroke-dasharray="none" stroke-opacity="" data-original="#000000" opacity="1"></path>        <path d="M0 0h-20c-22.092 0-40-17.908-40-40v-60c0-42.171 18.732-79.893 48.229-105.56" style="stroke-width:30;stroke-linecap:round;stroke-linejoin:round;stroke-miterlimit:10;stroke-dasharray:none;stroke-opacity:1" transform="translate(75 477)" fill="none" stroke="#fefefe" stroke-width="30" stroke-linecap="round" stroke-linejoin="round" stroke-miterlimit="10" stroke-dasharray="none" stroke-opacity="" data-original="#000000" opacity="1"></path>        <path d="M0 0c29.497 25.667 48.229 63.389 48.229 105.56v60c0 22.092-17.909 40-40 40h-20" style="stroke-width:30;stroke-linecap:round;stroke-linejoin:round;stroke-miterlimit:10;stroke-dasharray:none;stroke-opacity:1" transform="translate(246.771 271.44)" fill="none" stroke="#fefefe" stroke-width="30" stroke-linecap="round" stroke-linejoin="round" stroke-miterlimit="10" stroke-dasharray="none" stroke-opacity="" data-original="#000000" opacity="1"></path>        <path d="M0 0v-77c0-35.899 29.101-65 65-65v0c35.899 0 65 29.101 65 65v70c0 35.899 29.101 65 65 65h27" style="stroke-width:30;stroke-linecap:round;stroke-linejoin:round;stroke-miterlimit:10;stroke-dasharray:none;stroke-opacity:1" transform="translate(155 157)" fill="none" stroke="#fefefe" stroke-width="30" stroke-linecap="round" stroke-linejoin="round" stroke-miterlimit="10" stroke-dasharray="none" stroke-opacity="" data-original="#000000" opacity="1"></path>        <path d="M0 0c0-33.137-26.863-60-60-60s-60 26.863-60 60 26.863 60 60 60S0 33.137 0 0Z" style="stroke-width:30;stroke-linecap:round;stroke-linejoin:round;stroke-miterlimit:10;stroke-dasharray:none;stroke-opacity:1" transform="translate(497 215)" fill="none" stroke="#fefefe" stroke-width="30" stroke-linecap="round" stroke-linejoin="round" stroke-miterlimit="10" stroke-dasharray="none" stroke-opacity="" data-original="#000000" opacity="1"></path>        <path d="M0 0c0-8.284-6.716-15-15-15-8.284 0-15 6.716-15 15 0 8.284 6.716 15 15 15C-6.716 15 0 8.284 0 0" style="fill-opacity:1;fill-rule:nonzero;stroke:none" transform="translate(452 215)" fill="#fefefe" data-original="#000000" opacity="1"></path>      </g>    </g>  </g></svg>