<svg xmlns="http://www.w3.org/2000/svg" xmlns:xlink="http://www.w3.org/1999/xlink" fill="none" viewBox="0 0 735 658">
  <path fill="#dedede" d="M0 0h735v658H0z" />
  <path stroke="#fff" stroke-linejoin="round" stroke-opacity=".48" stroke-width="8" d="m522.27 391.59-.01.02zm0 0 .04-.04-.02.02.12-.15q.18-.21.39-.4l.23-.2a4 4 0 0 1 4.18-.43l.8.38a4 4 0 0 1 1.88 5.28c-16.1 34.82-51.92 53.23-90.25 60.35-38.53 7.16-79.63 1.22-110.05-7.67-49.42-14.45-121.76-41.63-200.65-11.32a4 4 0 0 1-4.42-6.4c9.35-10.41 23.02-18.54 37.76-24.21a148 148 0 0 1 41.63-9.4V105.16c-.18-.9-.4-1.43-.61-1.74l-.1-.13c-.2-.27-.58-.62-1.54-.96-2.26-.78-6.45-1.04-14.37-.5l-.49.04a4 4 0 0 1-4.27-4V89a4 4 0 0 1 4-4h69.15a4 4 0 0 1 4 4v8.9a4 4 0 0 1-4.41 3.98l-.5-.05a76 76 0 0 0-8.42-.5 15 15 0 0 0-4.52.56c-.77.28-1.05.57-1.22.81-.22.32-.5.98-.67 2.32v292.89c27.58 2.23 58.75 8.56 92.35 19.67 27.86 9.22 56.97 13.19 82.96 13.3 26.05.1 48.68-3.66 63.65-9.7 15.18-6.12 26.1-13.62 33.2-19.55a88 88 0 0 0 7.81-7.33 53 53 0 0 0 2.27-2.6zm6.43 4.77-.03.03-.02.03.02-.03.01-.01zm-6.46-4.73ZM355.88 295.5c32.3-30.08 77.06-45.05 127.19-38.3l1.19.17h.03l-.6 3.96.6-3.95h.05l.13.03a47 47 0 0 1 2.2.4 127 127 0 0 1 25.68 8.04c11.26 4.93 23.96 12.7 32.29 24.68.23-4.8.35-9.94.45-13.73v-.2a4 4 0 0 1 4-3.7h1.76a4 4 0 0 1 4 4v72.32a4 4 0 0 1-7.99.26c-2.28-34.25-21.6-51.22-40.52-59.83a102 102 0 0 0-26.05-7.64 100 100 0 0 0-10.8-1.1l-.58-.01h-.1c-60.37 1.92-92.33 37.48-109.4 73-8.56 17.81-13.33 35.55-15.95 48.86a205 205 0 0 0-2.52 16.02 137 137 0 0 0-.55 5.83c.06 82.97 66.71 123.33 121.63 120.2 27.27-1.55 48.48-13.88 65.65-27.23 8.62-6.7 16.07-13.53 22.89-19.45 6.64-5.77 12.92-10.9 18.75-13.42 9.54-4.14 18.17-1.23 24.72 3.37 6.44 4.53 11.32 10.95 14.1 15.16a42 42 0 0 1 2.91 4.81l.05.1.01.03.01.01-3.61 1.73 3.61-1.72a4 4 0 0 1-7.16 3.56l-.02-.04-.11-.2-.47-.83a60 60 0 0 0-1.81-2.92c-2.06-2.93-5.13-6.34-8.92-8.13-3.52-1.67-8-2.12-13.72 1.38-1.93 1.18-4.52 3.53-8.01 7.07-3.62 3.66-7.22 7.55-12.12 12.54-9.35 9.53-21.32 20.85-36.3 30.51-30.16 19.44-72.26 31.97-129.44 10.99l-.06-.02-.22-.08a53 53 0 0 1-3.69-1.46 121 121 0 0 1-10.15-4.9 146 146 0 0 1-30.62-22.08c-22.34-21.02-44.58-55.5-44.58-109.09 0-53.32 19.65-98.72 52.17-129Z" />
  <g filter="url(#a)">
    <path fill="color(display-p3 0 .1333 .1333)" fill-rule="evenodd" d="m255.68 97.9-.5-.05a80 80 0 0 0-8.88-.53c-2.43.03-4.32.29-5.79.8a6 6 0 0 0-3.2 2.34 9 9 0 0 0-1.36 4.32v296.84c28.1 1.92 60.23 8.23 95.09 19.76 56.6 18.72 118.13 16.1 149.35 3.5 15.62-6.3 26.9-14.02 34.27-20.18a91 91 0 0 0 8.17-7.67 56 56 0 0 0 2.49-2.84l.11-.15.03-.04h.01l.8.37c-15.34 33.14-49.64 51.1-87.36 58.1s-78.16 1.2-108.2-7.58c-49.02-14.34-122.8-42.1-203.21-11.21 17.57-19.56 52.22-31.34 80.4-32.51-2.54.1 2.46-.19 0 0V104.8a9 9 0 0 0-1.52-3.94 7 7 0 0 0-3.4-2.3c-3.15-1.08-8.11-1.24-15.97-.7l-.48.03V89h69.15z" clip-rule="evenodd" shape-rendering="crispEdges"/>
    <path fill="color(display-p3 1 .8431 0)" fill-opacity=".64" d="M220.66 86.03c-10.5-.02-23.12.07-34.13.05l-2.9-.02-.02 2.94q0 2.71-.03 5.27v.51l-.02 3.1-.02 3.17 3.2-.2.48-.03c3.73-.2 7.76-.43 11.87.06a17 17 0 0 1 2.86.64c.92.33 1.53.74 1.92 1.27.38.5.7 1.35.88 2.54l-.05-.53-.15 18.5c-.31 40.55-.1 72.52-.04 82.47.13 19.94.13 41.22.14 70.25v8.17c0 2.26-.11 4.13-.24 4.18s-.24-1.74-.24-4v-8.02c0-29.22 0-50.03-.13-69.5-.07-10.17-.28-42.93.04-84.48l.15-17.58.05.62a5.4 5.4 0 0 0-.79-2.33 3.4 3.4 0 0 0-1.7-1.11q-.8-.3-1.77-.46t-1.98-.27h-.05a77 77 0 0 0-11.23.08l-3.7.24.02-3.67.03-3.92v-.3l.02-4.67.02-3.41 3.38.02c11.19.03 23.84-.07 34.2-.06 2.27 0 4.08.12 4.06.25s-1.87.23-4.13.23m269.46 349.39c10.18-6.18 22.6-16.56 30.47-28.3a87 87 0 0 0 6.98-12.14l.6-1.28-1.28-.63-.78-.39-.87-.42-.74.65-.18.2c-.05.06-.02.02 0 0l-.03.04-.11.14-.47.56q-.97 1.13-1.96 2.16a89 89 0 0 1-10.13 9.04 130 130 0 0 1-21.2 13.33 136 136 0 0 1-10.7 4.83c-2.57 1.03-5.42 2-8.3 2.85-26.75 7.27-45.36 6.7-58.23 6.82-2.68-.03-5.14-.1-7.48-.18a255 255 0 0 1-50.74-7.1 304 304 0 0 1-23.14-6.6 392 392 0 0 0-26.16-7.69c-9.61-2.4-21.47-5.3-39.54-8.18a351 351 0 0 0-30.05-3.44l1.8 1.93q0-5.1.02-9.87l.02-9.58c.02-7.73.04-14.64.03-21.16-.07-40.39.02-63.68.15-78.32.1-11.26.22-17.55.31-22.08l.08-3.73c.17-10.16.25-19.5.34-30.72l.07-7.8a1372 1372 0 0 0-.02-27.38v-.9l-.01-.6v-.2l-.01-.1-.02-.77v-4.47l-.04-4.85c-.02-1.68-.04-3.64-.05-6.1-.02-2.25.08-4.3.2-4.6.14-.3.25 1.27.27 3.5l.08 11.36.01 1.79.03 3.63v.87l.06 6.67a1511 1511 0 0 1-.1 30.77c-.1 11.27-.18 21.3-.36 32.1l-.09 4.41c-.09 4.5-.2 9.88-.29 20.28-.12 13.95-.2 36.69-.14 76.85a5288 5288 0 0 1-.05 31.28l-.02 9.72-2.24-2.4a352 352 0 0 1 29.13 3.29 421 421 0 0 1 38.84 7.9l1 .25 1.22.31a398 398 0 0 1 25.68 7.57 300 300 0 0 0 25 7.05 254 254 0 0 0 28.6 5.08 235 235 0 0 0 19.33 1.52c2.42.1 5.04.18 8 .22 13.06-.12 31.95.47 58.88-6.95 2.7-.81 5.34-1.73 7.75-2.7a136 136 0 0 0 15.56-7.4 128 128 0 0 0 18.21-12.27 88 88 0 0 0 8.09-7.4 55 55 0 0 0 2.51-2.83l.02-.03c-.01.01-.05.06 0 0l.25-.27.98-.87 1.15.56.79.4 1.7.83-.8 1.7a88 88 0 0 1-7.38 12.73c-7.92 11.56-19.52 21.1-28.38 26.75q-1.38.9-2.8 1.76c-8.11 4.96-17 8.9-24.28 11.67a152 152 0 0 1-25.68 7.45c-33.93 7.32-78.92 1.89-109.68-7.54l-3.51-1.04c-45.25-14.63-78.74-21.02-90.34-22.1l-2.54-.31c-4.7-.54-8.86-.9-13.25-1.17l-.71-.04a258 258 0 0 0-15.21-.44 210 210 0 0 0-61 8.85 208 208 0 0 0-14.56 5.01l-3.64-5.29a75 75 0 0 1 12.92-11.26c15.54-10.48 27.7-14.13 36.92-16.96q4.36-1.25 8.22-2.13a141 141 0 0 1 15.64-2.7q4.6-.52 9.02-.72l-3.32 3.47-.07-20.24c-.03-9.3-.06-18.52-.07-28.26 0-2.27.11-4.14.24-4.19.13-.04.24 1.75.24 4.01a7691 7691 0 0 0 .07 30.07c.02 6 .05 12.15.06 18.61l2.87-3q-4.23.2-8.63.68c-4.93.56-9.6 1.32-15.04 2.53q-3.88.85-8.47 2.14c-9.34 2.83-21.63 6.48-37.27 16.98a74 74 0 0 0-12.97 11.29l3.11 4.53a208 208 0 0 1 22.1-7.13 210 210 0 0 1 53.5-6.76c5.42 0 10.04.14 14.66.4q.38 0 .77.04a246 246 0 0 1 16.27 1.49c11.64 1.07 45.34 7.5 90.75 22.19l.43.12 2.94.88c29.16 8.32 46.78 9.6 59.97 10.4a240 240 0 0 0 29.14-.3 172 172 0 0 0 20.32-2.72 156 156 0 0 0 21.93-5.99c8.2-2.86 17.99-7.08 26.01-11.82l.04-.02q1.43-.84 2.78-1.68M238.44 140.54c0-2.26.1-4.08.24-4.06s.23 1.88.23 4.14l-.03 16.16c0 2.26-.11 4.07-.24 4.05s-.24-1.87-.23-4.13q0-8.09.03-16.16M480.7 437.92c1.95-1 3.9-1.98 4.4-2.11s-.64.66-2.58 1.7c-1.03.54-2.72 1.44-5.03 2.55-7.16 3.48-20.58 9-38.57 12.51-23.71 4.83-55.29 4.81-86.74-1.59a275 275 0 0 1-21.72-5.25c-13.22-3.67-26.74-8.18-52.84-14.88-49-12.76-102.18-14.94-149.77 3.76l-1.1-1.6c21.09-21.8 51.69-30.88 81.11-32.7l-.82.86c.07-58.34.07-116.66-.1-174.95-.12-40.09-.14-80.04-.13-120.16v-1.27l.02.18a8 8 0 0 0-1.32-3.45 6 6 0 0 0-2.9-1.94c-4.44-1.38-10.02-.98-15.53-.68l-.5.03-1.12.07v-1.1l.03-8.89v-1.04l1.03.01 69.15.2.83.01V89l-.02 4.85c0 2.26-.1 4.08-.24 4.05-.13-.02-.23-1.87-.23-4.13l.01-4.77v-.35h-.35c-13.54-.04-42.45-.14-69.15-.2l-.56-.01V89l-.02 8.89v.61l.62-.04.48-.03c5.55-.3 11.11-.73 15.72.7a6.4 6.4 0 0 1 3.13 2.1 8 8 0 0 1 1.4 3.67v-.1.92c-.01 40.03 0 79.9.12 119.91q.26 87.7.32 175.54l.16-.17c-29.25 1.85-59.75 11.05-80.5 32.6l.15.2c47.82-18.91 101.38-16.75 150.51-3.92 26.34 6.78 39.34 11.54 52.55 15.35a250 250 0 0 0 21.02 5.15c31.74 6.55 63.58 6.54 87.21 1.72 16.9-3.3 29.59-8.34 36.62-11.61 2.4-1.12 4.16-2.01 5.25-2.57m14-18.94c-4.24 2.3-8.94 4.54-14.04 6.6-21.92 8.66-50.85 10.83-76.21 9.69a285 285 0 0 1-40.67-4.82 240 240 0 0 1-32.88-8.7l-5.47-1.83-.34-.1a389 389 0 0 0-38.45-10.61 342 342 0 0 0-50.72-7.41l-.17-.01v-.18l-.05-16.92v-.06c-.08-25.07-.4-50.5-.37-68.87.06-64.04.38-103.52.64-123.49.35-27.65.11-58.24.28-87.49v.03a9 9 0 0 1 1.32-4.16 6 6 0 0 1 3.06-2.18c1.8-.6 3.75-.7 5.66-.72a73 73 0 0 1 8.82.67c.7.12.62.17-.02.16-1.28 0-4.85-.32-8.8-.32a38 38 0 0 0-2.42.1c-1.09.1-2.1.26-3.07.59a5.3 5.3 0 0 0-2.97 2.24 9 9 0 0 0-1.06 3.68v-.09 6.57c0 7.94-.1 63.04-.34 82.54-.24 18.95 0 57.6-.06 122.05-.02 18.03-.27 42.95-.2 68.16v.2l.06 17.31-.27-.29c19 1.24 36.97 4.36 50.76 7.42a392 392 0 0 1 39.72 11.01l.3.1q2.16.72 4.31 1.46a239 239 0 0 0 32.8 8.67 285 285 0 0 0 41.1 4.84c25.3 1.09 53.92-1.13 75.53-9.68 4.96-2 9.54-4.17 13.68-6.4 2-1.07 3.7-1.95 3.85-1.89s-1.31 1.05-3.3 2.13m.93 2.85q-6.74 3.65-13.83 6.56c-49.8 17.32-103.52 12.04-151.97-3.4a459 459 0 0 0-43.26-12.31 349 349 0 0 0-50.87-7.64l-3.18-.2-.02-3.22.03-17.17v-.86l.1-68.2c.05-64.04.14-103.67.4-123.64.23-18.62.23-23.78.24-31.44v-.67l-.02-.6v-1.41a2951 2951 0 0 1 .1-17.57l.02-.8.08-8.58c.02-2.25.14-3.84.27-3.57.13.28.22 2.32.2 4.57l-.09 8.95v.79c-.04 2.5-.06 4.68-.08 7.76l-.01 10.78c0 7.94 0 13.9-.25 33.4-.25 18.95-.33 57.55-.4 122-.01 18.02-.05 43.1-.09 68.25v.88l-.02 17.13.01 2.77 2.74.18c19.2 1.33 37.25 4.58 50.92 7.64a453 453 0 0 1 43.42 12.05c48.68 15.16 101.51 20.3 151.49 3.54q6.9-2.75 13.51-6.21c8.1-4.32 15.3-9.18 21.61-14.45q4.41-3.68 8.2-7.68l.26-.27a60 60 0 0 0 2.64-3.03l.15-.18.04-.05c.02-.04.1-.13.01-.02l-.4.44-3.5.5.8.37-1.5-4.18c-12.6 26.54-34.1 39.46-54.23 47.93-4.23 1.71-14.75 5.83-30.74 8.86q-2.94.56-6.11 1.04c-5.68.86-11.95 1.53-18.76 1.87-16.69.86-36.67-.21-58.67-4.44a274 274 0 0 1-23.52-5.62c-12.5-3.54-25.7-8.08-50.6-14.59-39.1-12.25-109.73-14.46-144.54-.14a215 215 0 0 0-9.61 3.4l2.74 4c8-8.58 14.85-12.3 19.72-15.14a125 125 0 0 1 15.45-7.14c15.3-5.74 29-8.48 43.5-9.22l2.59-.12-.02-2.56c-.02-13.12-.06-26.9-.11-43.77 0-2.25.1-4.22.22-4.4.13-.16.24 1.53.25 3.78.06 17.06.1 31.03.12 44.39l.01 3.01-3.04.15c-14.44.73-28.23 3.48-43.53 9.25a124 124 0 0 0-15.65 7.3c-4.72 2.76-11.37 6.44-19.16 14.78l-3.26-4.75c2.99-1.13 6.17-2.28 9.81-3.47 34.84-14.3 105.52-12.05 144.53.17 25.1 6.56 38.14 11.06 50.71 14.61a256 256 0 0 0 22.82 5.48c21.99 4.29 41.98 5.41 58.64 4.6a190 190 0 0 0 25.38-2.94c15.78-3 25.41-6.8 29.01-8.18 20.82-8.41 43.06-21.74 55.62-48.33l1.72 4.8-.8-.38 4.03-.57.46-.5c.09-.13.01-.02-.02.02l-.04.05-.15.19-.54.67a60 60 0 0 1-2.68 2.98 97 97 0 0 1-7.94 7.4 127 127 0 0 1-21.36 14.32M210.58 227.75c.01 2.25-.09 4.2-.22 4.37s-.24-1.54-.25-3.8l-.09-27.17c-.04-12.39-.06-18.38-.06-27.35l.02-65.62v-3.39l-.02-.34a11 11 0 0 0-1.93-4.85 9 9 0 0 0-4.38-3c-6.24-1.8-11.59-1.05-16.78-.82l-.49.03 2.23 2.08V89l-2.08 2.08c16.2 0 29.29.02 37.85.03 2.26 0 4.07.11 4.05.25-.02.13-1.88.23-4.14.22l-37.76-.02 2.55-2.56v8.89l-2.73-2.55.49-.04c5.21-.21 10.53-1 16.96.85a9.6 9.6 0 0 1 4.6 3.16 11 11 0 0 1 2.02 5.06l.04.42v3.04l-.02 65.87c0 8.7.01 14.35.06 26.47zM207.7 398.2c-.02-.02-.04.12-.07.04l-.03-.15v-.02l-.07-.25c-.09-.3-.13-.1-.14-.03-.03.13-.07.13-.11.14h-.01l-.02-.24v-.23h.01c.04 0 .08-.01.11-.14.02-.07.05-.28.15.04l.06.24v.02l.03.14c.03.09.05-.05.07-.03l.02.24zm.42 4.35c0-.17.04-.16.06-.08l.08.3.04.13h.01l.04.06c.06.14.09.14.11.13l.01-.01q.03-.03.04.03l.06.34c.03.23.05.2.02.05v-.03c-.02-.03-.01-.06-.06-.09l-.12-.05-.15-.05-.07-.01-.23-.07q-.14-.02-.47-.2c-.21-.15-.64-.38-.94-1.14-.32-.78.03-1.77.33-2.09.3-.37.51-.47.65-.56.28-.15.38-.16.46-.19l.16-.03h.04l.04.02q.05 0 .06.03.04.05.04.08 0 .12-.03.06l-.01-.02q-.03-.04-.04-.03c-.06.08-.1 0-.15-.13l-.07-.39-.08-.34-.02-.06q-.03-.1-.04-.03l-.01.05v.04l-.01.04v.05q-.02.01-.03-.2l-.02-.27v-.04l.01-.04v-.04h.01v-.06q.02-.08.05.03l.1.42.02.09q.02.15.06.28c.03.12.08.2.14.13l.03.03.02.02q.02.06.02-.06c-.01-.04-.03-.1-.21-.13 0 0-.1 0-.4.1-.17.1-.39.05-1.06.72a2.7 2.7 0 0 0-.63 2.24c.2 1.02.8 1.5 1.08 1.7.63.42.8.39.97.44l.1.03.35.1q.1.05.1.08v.03c.06.17.03.2 0-.05l-.05-.33q-.01-.06-.03-.03l-.02.01c-.02.01-.05.01-.1-.13l-.04-.05-.01-.01q-.03-.02-.05-.14l-.07-.29c-.03-.07-.06-.08-.07.07v.05l-.02.5c.02 1.45-.12.9-.2.82-.08-.1-.14-.08-.16-.07l-.03.04q0 .03-.02.03-.06 0-.09.05v.01l-.05.04q-.03 0-.03.06v.03q0 .04.04.05h.04a3 3 0 0 0 .53-.09 3 3 0 0 0 1.02-.48c.14-.1.5-.34.84-.82a3.5 3.5 0 0 0-.36-4.5c-.8-.74-1.15-.76-1.4-.87l-.47-.12c-.36-.06-.44-.05-.43-.06l-.08-.02c-.1-.04-.08-.07-.08-.07v.47s-.01.03.06.07h.02l.04.02.23.03c.12.03.2 0 .73.2.25.14.77.16 1.53 1.33.36.59.5 1.63.26 2.36a3 3 0 0 1-.86 1.35c-.29.26-.36.28-.47.35a3 3 0 0 1-.87.35c-.24.05-.28.04-.3.04l-.03-.01q-.03 0-.03-.04v-.04q0-.05.03-.06l.05-.04v-.01q.04-.05.1-.05l.02-.03.02-.04c.02-.01.09-.03.18.07.06.06.09.1.1-.02l.04-.13h.01l.02-.05c.02-.1.02-.26.02-.57l.02-.54zm-.3-3.87-.02-.24v-.23l.02.03.03.24.01.22zm.15 1.52.02.19v.35c-.02.25-.08.95-.17 1.16l-.02.06c-.03.07-.04.4-.1.4-.12-.03-.26-.18-.38-.28l-.03-.03c.01 0-.04 0 .08-.03l.1-.03.1-.05c.04-.04.09-.02.27-.24.09-.1.19-.31.17-.56a1 1 0 0 0-.23-.53c-.2-.19-.29-.2-.35-.22-.11-.04-.14-.03-.17-.04h-.06q0 .03.06.03.08 0 .18-.15.1-.16.21-.14c.06 0 .18.25.22.27l.01.24v.23c-.03-.02-.15-.26-.2-.26-.1 0-.15.01-.23.13q-.09.16-.18.24l-.09.07.03.01.04.02c.02.01.1.07.09.18-.08.18-.1.11-.1.13h-.03q-.02 0 0 0l.04-.02a1 1 0 0 1 .39-.02c.06.01.1.25.13.18l.02-.06c.09-.2.15-.9.17-1.15zm.2.19c.05-.04.13.02.19.07l.08.07c.03.01.07.12.09.24q.01.09.04.15 0 .04.02.06l.02.02h.02c0 .02.06-.01.08.11-.03.1-.06.08-.07.1h-.02q-.08 0-.12.15c-.04.08-.06.4-.1.38-.13-.05-.22-.37-.29-.62-.1-.44-.12.07-.24-.5-.02-.12-.03-.47-.01-.37l.02.07.02.02c.02 0 .13.08.18.32.06.24.1-.01.23.04.04.02.1.27.14.19.03-.08.1-.17.08-.15l-.06.02-.1.05a.4.4 0 0 0-.13.37c.06.2.17.24.2.26l.08.03h.05l.01-.02v-.06l-.04-.16c-.02-.11-.05-.22-.08-.23l-.08-.06c-.06-.06-.13-.12-.18-.08l-.02-.23zm-.14-2.94q.09-.39.21-.33.07.03.15.15.04.08.12.15l.1.09.25.06.46.1q.01-.02.4.1c.24.1.6.14 1.36.84a3.5 3.5 0 0 1 .53 4.32c-.7 1.03-1.14 1.13-1.4 1.3-.26.13-.4.17-.51.2-.22.08-.31.09-.38.1-.35.06-.34.03-.4.03l-.12-.05-.17-.07c-.14-.05-.22-.13-.28-.38-.06-.24-.07-.24-.08-.24v.01l-.02-.03-.03-.08-.02-.08-.03-.46.02.08q0 .06.02.07l.02.02c.02 0 .03 0 .08.25.07.23.14.31.28.37l.16.07.12.05c.05 0 .05.03.35-.02q.06 0 .32-.08c.1-.04.22-.07.45-.19.22-.14.6-.22 1.2-1.13a3.04 3.04 0 0 0-.5-3.75c-.63-.58-.94-.6-1.15-.7l-.25-.06-.07-.02-.08-.01c-.18-.04-.25-.04-.32-.05l-.2-.01h-.2l-.14.03c-.07.01-.15-.01-.23-.18l-.07.04c-.07.02-.11.04-.15.33q0 .09-.06.19l-.04.06-.1.2-.02.06q-.04.12-.12.12c-.08-.01-.22-.12-.31-.2l-.1-.15-.04-.04c-.06-.04-.08-.04-.2-.01l-.1.02-.17.04c-.1.03-.18.03-.56.2q-.15.07-.4.24c-.23.2-.89.58-1.1 1.84a2.7 2.7 0 0 0 1.08 2.48c.4.29.6.34.76.4.3.08.39.08.48.1h.27q.13-.03.15-.07l.02.22-.01.25q-.03.04-.17.07l-.09.01c-.08 0-.13.01-.51-.06q-.13-.03-.48-.15c-.24-.11-.61-.2-1.24-.88a3.16 3.16 0 0 1 .39-4.46l.22-.17.14-.09c.34-.2.5-.25.63-.3l.26-.08.23-.05.14-.03c.14-.03.16-.03.22 0l.04.06.01.02.1.12c.08.08.23.19.3.2q.1 0 .13-.12l.02-.05.1-.21.04-.07.06-.17c.04-.3.09-.32.16-.34zm-.47 6.41-.02-.22v-.25l.06-.09.04-.06.13.01q.1 0 .14.03s.02.12.02.25v.23q-.05-.04-.14-.03l-.13-.02q-.03 0-.05.06z"/>
  </g>
  <g filter="url(#b)">
    <path fill="url(#c)" fill-opacity=".64" fill-rule="evenodd" d="m255.68 97.9-.5-.05a80 80 0 0 0-8.88-.53c-2.43.03-4.32.29-5.79.8a6 6 0 0 0-3.2 2.34 9 9 0 0 0-1.36 4.32v296.84c28.1 1.92 60.23 8.23 95.09 19.76 56.6 18.72 118.13 16.1 149.35 3.5 15.62-6.3 26.9-14.02 34.27-20.18a91 91 0 0 0 8.17-7.67 56 56 0 0 0 2.49-2.84l.11-.15.03-.04h.01l.8.37c-15.34 33.14-49.64 51.1-87.36 58.1s-78.16 1.2-108.2-7.58c-49.02-14.34-122.8-42.1-203.21-11.21 17.57-19.56 52.22-31.34 80.4-32.51-2.54.1 2.46-.19 0 0V104.8a9 9 0 0 0-1.52-3.94 7 7 0 0 0-3.4-2.3c-3.15-1.08-8.11-1.24-15.97-.7l-.48.03V89h69.15z" clip-rule="evenodd"/>
  </g>
  <g filter="url(#d)">
    <path fill="color(display-p3 0 .1333 .1333)" d="M549.08 276.9h1.77v72.32c-4.8-72.12-82.1-72.32-82.1-72.32-124.72 3.9-132.36 147.6-132.36 147.6 0 85.73 69.03 127.55 125.86 124.3 56.83-3.23 87.94-51.45 108.65-60.42 15.67-6.79 28.57 9.02 33.93 17.12a34 34 0 0 1 2.67 4.42s-.94-1.81-2.67-4.42c-4.44-6.33-14.23-16.32-28.02-7.9-19.22 11.76-70.67 101.8-182.47 60.75 0 0-86.63-29.18-86.62-133.85s77.04-177.16 175.97-163.17c0 0 51.02 7.62 63.37 42.54 1.46-2.68 1.8-18.45 2.02-26.97" shape-rendering="crispEdges"/>
    <path fill="color(display-p3 1 .8431 0)" fill-opacity=".96" d="M540.7 288.85c-8.02-10.3-22.07-18.44-33.73-22.9l-.49-.18a128 128 0 0 0-18.3-5.56 80 80 0 0 0-4.2-.82h-.01a172 172 0 0 0-24.8-1.88c-42.5-.42-72.78 17.67-81.04 23.11-17.22 11.26-34.32 26.42-49.42 52.45q-2.04 3.58-4 7.44a42 42 0 0 1-2.03 3.83c-.1.02.63-1.7 1.69-3.8a163 163 0 0 1 3.92-7.33c15.2-26.26 32-41.07 48.74-52.23 8.4-5.63 39.46-24.46 83.1-23.77 9.78.1 17.42.94 23.88 1.88h.02a86 86 0 0 1 7.79 1.68l.06.01c6.18 1.6 10.93 3.22 15.49 5.02l.29.11c11.81 4.58 25.53 12.76 33.33 22.82 1.5 1.88 2.51 3.54 2.43 3.56s-1.22-1.58-2.72-3.44m-3.26 224.81c-9.08 7.86-21.96 17.47-34.67 23.5a107 107 0 0 1-31.33 9.67 109 109 0 0 1-25.67.56c-6.3-.59-13.27-1.76-20.72-3.84-27.4-7.96-42.18-20.5-51.68-29.42q-2.91-2.84-5.29-5.46v-.01a109 109 0 0 1-12.92-17.42 114 114 0 0 1-11.99-27.97c-3.22-11.01-5.3-26.04-5.23-38.77v.08a155 155 0 0 1 1.36-12.6c1.47-9.8 3.6-22.11 9.54-39.61 5-14.47 11.03-26.55 17.37-36.5a143 143 0 0 1 5.5-8c4.63-6.3 9.3-11.56 14-16.16 30.13-28.32 56.37-30.43 70.52-32.57 5.05-.54 9.08-.73 12.57-.81h-.05c3.98.13 7.12.56 9.62.91 1.32.2 2.59.41 3.68.61 10.1 1.89 19.2 4.58 29.19 9.74a79 79 0 0 1 6.7 3.95 70 70 0 0 1 15.62 13.89 64 64 0 0 1 3.74 5l.05.08.76 1.15.1.16.06.08v.01l.41.64.6.98c.3.53.84 1.45 1.59 2.88a68 68 0 0 1 1.96 4.05l.13.3a69 69 0 0 1 2.19 5.66c.72 2.13 1.2 4.14 1.19 4.44s-.44-1.14-1.13-3.31a69 69 0 0 0-2-5.44l-.12-.3a69 69 0 0 0-5.27-10.04c-1-1.57-2.3-3.42-3.84-5.34a69 69 0 0 0-17.1-15.22 79 79 0 0 0-6.5-3.73c-10.04-5.08-19.86-7.93-30.54-9.7q-2.17-.34-4.38-.61a76 76 0 0 0-6.7-.54h.05c-3.57.09-7.75.26-13.65.94-13.39 2.17-38.97 4.12-68.96 32.08a131 131 0 0 0-14.57 16.81q-2.69 3.66-5.25 7.7a171 171 0 0 0-16.94 35.39 211 211 0 0 0-11.2 53.05v-.1c-.06 13.32 2.16 28.9 5.79 40.62a113 113 0 0 0 11.95 26.92c2.8 4.51 5.98 9.26 11.76 15.8q2.43 2.75 5.62 5.87c9.62 9.09 24.6 21.8 52.29 29.7a117 117 0 0 0 25.82 4.07 111 111 0 0 0 21.76-1.22 107 107 0 0 0 29.98-9.64c12.46-6.03 24.33-14.94 32.35-21.76q1.27-1.06 2.52-2.15c7.22-6.21 14.28-12.9 20.37-17.98 3.27-2.73 6.95-5.77 11.74-8 15.24-7.45 31.38 7.75 39.2 22.2l-3.8 1.9c-4.97-10.5-17.53-18.88-27.68-11.42-11.18 8.65-20.66 20.84-30.12 29.2q-.6.58-1.23 1.15c-35.87 34.39-74.32 40.18-85.94 40.78l-2.66.2a137 137 0 0 1-14.7.1c-4.8-.23-9.97-.7-15.86-1.64a180 180 0 0 1-33.75-8.95l.05.02c-7.33-2.7-13.6-6.03-19.35-9.44a145 145 0 0 1-7.2-4.6l-.03-.01a142 142 0 0 1-25.08-21.72 134 134 0 0 1-22.76-34.15 139 139 0 0 1-8.4-23.16 159 159 0 0 1-4.92-29.62 202 202 0 0 1 .12-29.24c.18-2.32.44-4.23.53-4.28a35 35 0 0 1-.22 4.12 205 205 0 0 0-.62 16.33 181 181 0 0 0 .62 14.73 160 160 0 0 0 4.69 27.54 140 140 0 0 0 8.2 22.85 134 134 0 0 0 22.87 34.55 141 141 0 0 0 32.02 26.2 117 117 0 0 0 19.62 9.62l-.04-.02a179 179 0 0 0 33.57 8.92c5.56.88 10.47 1.36 15.2 1.6l.82.05a136 136 0 0 0 17.05-.28c11.62-.58 50.14-6.31 86.08-40.81l.33-.32c13.69-12.5 22.5-24.08 30.94-30.01 6.83-4.37 13.63-3.37 18.16-.24 4.9 3.29 8.07 7.9 10.1 11.75l2.97-1.48a66 66 0 0 0-7.48-10.87 45 45 0 0 0-9.84-8.92c-6.96-4.66-15.03-5.27-21.31-2.29a44 44 0 0 0-8.57 5.41c-6.99 5.44-14.74 12.88-21.82 19.01l-.03.03zm14.97-175.84c0-2.3.07-4.16.15-4.14s.15 1.92.14 4.23v11.3l-3.68.13a97 97 0 0 0-.47-5.1c-.26-2.19-.52-4.09-.43-4.06.08-.01.48 1.92.73 4.1q.3 2.46.46 5.04l3.09-.1zm-6.72 170.68a53 53 0 0 1-3.85 3.2c-.44.26.57-.7 2.27-2.2.88-.79 2.37-2.1 4.31-3.85 4.74-3.89 11.41-11.53 22.5-17.25 13-6.65 28.7 6.45 36.81 21.4l-.47.23c-4.77-10.35-18.62-20.55-30.22-12.06-4.69 3.11-8.65 7.65-12.75 11.86-3.35 3.51-6.33 6.65-9.24 9.6-12.7 12.08-22.03 23.95-52.6 38.98-33.96 15.95-73.81 13.7-108.34.57h.02c-53.75-20.6-88.85-77.49-86.93-134.48-.3-48.31 17.81-98.1 54.95-130.06 30.98-27.32 73.86-39.13 114.68-34.63q3.3.33 6.96.85c22.94 3.63 56.54 19.07 63.79 43.03l-1-.08c2.24-10.54 1.62-19.96 1.94-24.36.02-.87.05-1.7.09-2.37v-.46h.47a8 8 0 0 1 1.77.12c-.01.05-.7.1-1.77.12h-.23v.23c0 .68-.02 1.54-.04 2.45-.32 4.4.34 13.66-1.98 24.4l.47.05c-7.17-23.82-40.75-39.25-63.55-42.83q-3.47-.5-6.6-.82c-40.65-4.56-83.38 7.05-114.36 34.13-37.33 31.86-55.57 81.8-55.2 130.23-1.85 56.88 33.26 113.49 86.73 133.92 34.51 13.09 74.23 15.25 108.03-.68 30.09-14.86 39.25-25.95 51.96-37.98a702 702 0 0 0 9.29-9.63c4.29-4.4 8.33-9.1 13.28-12.41 5.48-3.59 12.72-4.4 18.29-1.21 5.58 3.03 9.58 8.15 12.36 13.4l-.06.02c-8.14-15-23.8-27.8-36.44-21.25-10.06 5.1-16.37 12.09-20.85 15.8zm-96.44 40.73c-25.87-.84-62.18-15.5-83.17-40.35a117 117 0 0 1-21.51-35.7c-6.27-17.01-7.4-28.48-8.13-39.7l-.02-.37c-.14-2.82-.2-5.61-.19-8.6.7-8.62 2.12-18.5 5.25-31.72 4.28-17.93 12.67-42.54 27.6-63.65l.04-.05c14.49-21.28 36.48-37.11 54.08-43.62 16.13-6.32 31.7-8.47 45.55-8.9 39.35 2 61.44 21.51 69.3 33.75 7.6 10.97 11.76 24.71 12.65 38.9h.3c.01-23.84-.03-48.27.2-71.13.07-4.01.3 2.76.23 10.17v.8l-.05 7.92v11.03c0 4.32-.02 22.32-.06 41.2l-.93.04c-.7-16.62-7.8-32.8-13.53-40.1-7.75-11.3-29.2-30.06-68.1-31.98-13.77.46-29.33 2.6-45.49 8.98-17.12 6.39-38.92 21.37-53.6 42.67l-.12.17c-14.86 20.86-23.44 45.64-27.77 63.84-3.12 13.11-4.57 23.15-5.25 31.68-.01 3.5.07 6.63.26 9.89l.02.33c.8 11.09 2 21.98 8.03 38.32a116 116 0 0 0 21.8 36.01c20.97 24.56 56.7 38.91 82.26 39.85 2.3.15 4.26.26 4.36.34s-1.7.12-4.01-.02m-.65 1.8c-64.3-2.34-118.11-63.27-114.53-126.53v-.12a202 202 0 0 1 5.18-31.4c4.32-18.34 12.97-43.64 28.36-65.18l.51-.73c15-21.52 37.38-36.92 54.83-43.31 16.22-6.3 31.83-8.46 45.74-8.9h.07c40.32 1.95 63.09 22.12 71.12 34.86 10.26 16.69 9.92 22.8 11.63 30.45l.1.65.01.05.1.62.08.51.13.95c.13.98.42 3.45.59 6.16l-3.33.1v-3.14l.05-8.74v-.8l.06-8.78c.01-2.3.09-3.92.17-3.64s.13 2.37.12 4.66l-.05 9.15v.8l-.05 7.93v2.57l2.73-.1a93 93 0 0 0-.94-8.55c-1.76-7.9-1.45-14.89-12.62-32.07-7.92-11.76-29.84-31.33-69.9-33.35h-.06c-13.8.45-29.36 2.56-45.62 8.87-17.45 6.4-39.78 21.78-54.73 43.24l-.53.74c-15.36 21.52-23.97 46.75-28.28 65.03a202 202 0 0 0-5.05 31.37v.1c-2.98 63.37 49.4 122.84 113.75 126.21 4.83.33 9.57.35 14.12.09a105 105 0 0 0 23.2-3.97c32.93-9.99 51.92-29.7 70.1-45.48 2.62-2.06 7.6-7.3 15.92-11.4 4.7-2.2 11.17-2.2 17.17 1.46 4.86 2.85 9.39 7.46 13.4 13.06a61 61 0 0 1 3.92 6.2l2.88-1.45c-2.81-5.32-6.67-10.48-12.6-13.92-5.9-3.64-14.3-3.02-20.34 1-4.44 2.9-7.98 6.86-11.67 10.63-3.33 3.47-6.3 6.62-9.2 9.58-12.52 12.08-21.62 23.62-51.43 38.94-26.9 14.8-74.75 15.72-108.85 1.5l-.04-.02c-12.06-4.55-22.49-11.18-30.28-16.96-14.72-11.15-21.27-19.47-25.88-25.16a130 130 0 0 1-9.89-14.52c-13.93-24.67-18.93-45.63-19.43-75.79 0-3.6.08-7.24.28-11.08a32 32 0 0 1 .42-4.44c.1-.16.03 1.54-.1 3.83-.22 4.08-.3 7.9-.3 11.7.48 29.88 5.44 51.05 19.49 75.8a131 131 0 0 0 10.08 14.72c4.55 5.57 11.03 13.76 25.66 24.82 7.73 5.72 18.11 12.3 30.04 16.8l.05.02c34.02 14.2 81.73 13.27 108.54-1.44 29.46-15.12 38.41-26.38 50.9-38.38 2.94-3 5.83-6.06 9.25-9.64 3.86-3.93 7.5-8.07 12.21-11.16 6.1-4.07 14.67-4.7 20.65-1 6 3.5 9.87 8.67 12.71 14.05l-3.41 1.7a64 64 0 0 0-3.56-5.69c-3.94-5.59-8.4-10.22-13.13-13.13-6.24-3.99-12.78-3.93-17.42-1.76-7.74 3.77-12.29 8.48-14.46 10.16-18.8 16.24-38.6 36.96-72.02 46.86a106 106 0 0 1-22.84 3.85q-6.71.4-13.78-.06m-86.13-253.86c-1.7 1.51-3.19 2.82-3.36 2.87s1.02-1.18 2.73-2.7c9-8.02 16.32-12.77 22.12-16.26 10.85-6.3 16.5-8.6 25.03-11.72 22.13-7.86 45.21-9.65 65.51-7.78q4.56.4 9.01 1.04c29.25 5.16 50.1 20.12 56.93 31.19 1.28 1.86 2.08 3.46 2 3.48s-1.02-1.54-2.3-3.38c-6.77-10.94-27.48-25.85-56.68-31h.01q-4.27-.6-8.64-1c-20.29-1.91-43.4-.18-65.64 7.7-8.25 3.01-13.6 5.15-24.22 11.22a140 140 0 0 0-22.5 16.34"/>
  </g>
  <g filter="url(#e)">
    <path fill="url(#f)" fill-opacity=".64" d="M549.08 276.9h1.77v72.32c-4.8-72.12-82.1-72.32-82.1-72.32-124.72 3.9-132.36 147.6-132.36 147.6 0 85.73 69.03 127.55 125.86 124.3 56.83-3.23 87.94-51.45 108.65-60.42 15.67-6.79 28.57 9.02 33.93 17.12a34 34 0 0 1 2.67 4.42s-.94-1.81-2.67-4.42c-4.44-6.33-14.23-16.32-28.02-7.9-19.22 11.76-70.67 101.8-182.47 60.75 0 0-86.63-29.18-86.62-133.85s77.04-177.16 175.97-163.17c0 0 51.02 7.62 63.37 42.54 1.46-2.68 1.8-18.45 2.02-26.97"/>
  </g>
  <defs>
    <filter id="a" width="439.76" height="409.39" x="108.04" y="69.55" color-interpolation-filters="sRGB" filterUnits="userSpaceOnUse">
      <feFlood flood-opacity="0" result="BackgroundImageFix"/>
      <feColorMatrix in="SourceAlpha" result="hardAlpha" values="0 0 0 0 0 0 0 0 0 0 0 0 0 0 0 0 0 0 127 0"/>
      <feOffset dx="1" dy="2"/>
      <feGaussianBlur stdDeviation="9"/>
      <feComposite in2="hardAlpha" operator="out"/>
      <feColorMatrix values="0 0 0 0 0 0 0 0 0 0 0 0 0 0 0 0 0 0 0.36 0"/>
      <feBlend in2="BackgroundImageFix" result="effect1_dropShadow_25_131"/>
      <feBlend in="SourceGraphic" in2="effect1_dropShadow_25_131" result="shape"/>
    </filter>
    <filter id="b" width="398.76" height="366.59" x="127.5" y="89" color-interpolation-filters="sRGB" filterUnits="userSpaceOnUse">
      <feFlood flood-opacity="0" result="BackgroundImageFix"/>
      <feBlend in="SourceGraphic" in2="BackgroundImageFix" result="shape"/>
      <feTurbulence baseFrequency="0.083333335816860199 0.083333335816860199" numOctaves="3" result="noise" seed="5177" stitchTiles="stitch" type="fractalNoise"/>
      <feComponentTransfer in="noise" result="coloredNoise1">
        <feFuncR intercept="-.5" slope="2" type="linear"/>
        <feFuncG intercept="-.5" slope="2" type="linear"/>
        <feFuncB intercept="-.5" slope="2" type="linear"/>
        <feFuncA tableValues="0 0 0 0 0 0 0 0 0 0 0 0 0 1 1 1 1 1 1 1 1 1 1 1 1 1 1 1 1 1 1 1 1 1 1 1 1 1 0 0 0 0 0 0 0 0 0 0 0 0 0 0 0 0 0 0 0 0 0 0 0 0 0 0 0 0 0 0 0 0 0 0 0 0 0 0 0 0 0 0 0 0 0 0 0 0 0 0 0 0 0 0 0 0 0 0 0 0 0 0" type="discrete"/>
      </feComponentTransfer>
      <feComposite in="coloredNoise1" in2="shape" operator="in" result="noise1Clipped"/>
      <feComponentTransfer in="noise1Clipped" result="color1">
        <feFuncA tableValues="0 0.48" type="table"/>
      </feComponentTransfer>
      <feMerge result="effect1_noise_25_131">
        <feMergeNode in="shape"/>
        <feMergeNode in="color1"/>
      </feMerge>
    </filter>
    <filter id="d" width="339.91" height="349.79" x="288.48" y="241.19" color-interpolation-filters="sRGB" filterUnits="userSpaceOnUse">
      <feFlood flood-opacity="0" result="BackgroundImageFix"/>
      <feColorMatrix in="SourceAlpha" result="hardAlpha" values="0 0 0 0 0 0 0 0 0 0 0 0 0 0 0 0 0 0 127 0"/>
      <feOffset dx="1" dy="2"/>
      <feGaussianBlur stdDeviation="9"/>
      <feComposite in2="hardAlpha" operator="out"/>
      <feColorMatrix values="0 0 0 0 0 0 0 0 0 0 0 0 0 0 0 0 0 0 0.36 0"/>
      <feBlend in2="BackgroundImageFix" result="effect1_dropShadow_25_131"/>
      <feBlend in="SourceGraphic" in2="effect1_dropShadow_25_131" result="shape"/>
    </filter>
    <filter id="e" width="299.79" height="309.39" x="307.71" y="259.61" color-interpolation-filters="sRGB" filterUnits="userSpaceOnUse">
      <feFlood flood-opacity="0" result="BackgroundImageFix"/>
      <feBlend in="SourceGraphic" in2="BackgroundImageFix" result="shape"/>
      <feTurbulence baseFrequency="0.083333335816860199 0.083333335816860199" numOctaves="3" result="noise" seed="8734" stitchTiles="stitch" type="fractalNoise"/>
      <feComponentTransfer in="noise" result="coloredNoise1">
        <feFuncR intercept="-.5" slope="2" type="linear"/>
        <feFuncG intercept="-.5" slope="2" type="linear"/>
        <feFuncB intercept="-.5" slope="2" type="linear"/>
        <feFuncA tableValues="0 0 0 0 0 0 0 0 0 0 0 0 0 1 1 1 1 1 1 1 1 1 1 1 1 1 1 1 1 1 1 1 1 1 1 1 1 1 0 0 0 0 0 0 0 0 0 0 0 0 0 0 0 0 0 0 0 0 0 0 0 0 0 0 0 0 0 0 0 0 0 0 0 0 0 0 0 0 0 0 0 0 0 0 0 0 0 0 0 0 0 0 0 0 0 0 0 0 0 0" type="discrete"/>
      </feComponentTransfer>
      <feComposite in="coloredNoise1" in2="shape" operator="in" result="noise1Clipped"/>
      <feComponentTransfer in="noise1Clipped" result="color1">
        <feFuncA tableValues="0 0.48" type="table"/>
      </feComponentTransfer>
      <feMerge result="effect1_noise_25_131">
        <feMergeNode in="shape"/>
        <feMergeNode in="color1"/>
      </feMerge>
    </filter>
    <linearGradient id="c" x1="191.42" x2="297.65" y1="326.61" y2="377.94" gradientUnits="userSpaceOnUse">
      <stop stop-color="color(display-p3 .2595 .4164 .3196)" />
      <stop offset="1" stop-color="color(display-p3 .88 .74 .32)" />
    </linearGradient>
    <linearGradient id="f" x1="363" x2="502.5" y1="479.81" y2="490.42" gradientUnits="userSpaceOnUse">
      <stop stop-color="color(display-p3 .642 .727 .9422)"/>
      <stop offset="1" stop-color="color(display-p3 .7027 .32 .88)"/>
    </linearGradient>
  </defs>
</svg>
